/* XPM */
static char *_3b0e626139a4e35abf25a4d38b677e5UFmoWs2Qi3RlEDJK[] = {
/* columns rows colors chars-per-pixel */
"64 64 242 2 ",
"   c #2E1B1B",
".  c #1D2E23",
"X  c #1D3025",
"o  c #28362C",
"O  c #293E33",
"+  c #253935",
"@  c #363735",
"#  c #2F2E2B",
"$  c #181E23",
"%  c #481F1F",
"&  c #431D1D",
"*  c #553312",
"=  c #593615",
"-  c #5D3916",
";  c #5C3D1D",
":  c #57381B",
">  c #623B17",
",  c #643D19",
"<  c #683F19",
"1  c #78231D",
"2  c #4B2020",
"3  c #5C2424",
"4  c #572424",
"5  c #533530",
"6  c #612929",
"7  c #6A2928",
"8  c #742C29",
"9  c #7C322D",
"0  c #7A3232",
"q  c #753432",
"w  c #673436",
"e  c #2D4236",
"r  c #36483A",
"t  c #3A513F",
"y  c #39492A",
"u  c #64401B",
"i  c #6B421B",
"p  c #6E481E",
"a  c #72461D",
"s  c #74491E",
"d  c #7B4C1F",
"f  c #5E4020",
"g  c #5A472A",
"h  c #494637",
"j  c #584938",
"k  c #4E4E31",
"l  c #614221",
"z  c #64432A",
"x  c #6A4A26",
"c  c #744C21",
"v  c #7B4D21",
"b  c #724A26",
"n  c #6D532B",
"m  c #7C5324",
"M  c #74542D",
"N  c #6E5735",
"B  c #566B2F",
"V  c #796637",
"C  c #736930",
"Z  c #5C411E",
"A  c #1A3252",
"S  c #393A45",
"D  c #293D59",
"F  c #2F384A",
"G  c #1E3F68",
"H  c #1E3D65",
"J  c #243E63",
"K  c #423E48",
"L  c #49374F",
"P  c #753941",
"I  c #3B5240",
"U  c #3F524B",
"Y  c #364651",
"T  c #294569",
"R  c #344864",
"E  c #2A4E7B",
"W  c #2A4A73",
"Q  c #395577",
"!  c #345271",
"~  c #1E4068",
"^  c #475348",
"/  c #595A55",
"(  c #4F504E",
")  c #685A49",
"_  c #5A6350",
"`  c #686756",
"'  c #746857",
"]  c #746C4E",
"[  c #465E78",
"{  c #505A6C",
"}  c #486579",
"|  c #58646F",
" . c #696A66",
".. c #72736F",
"X. c #89221B",
"o. c #8A362D",
"O. c #843832",
"+. c #913D32",
"@. c #933129",
"#. c #A42F29",
"$. c #A22E27",
"%. c #A23D2A",
"&. c #804F21",
"*. c #835424",
"=. c #845927",
"-. c #895927",
";. c #845A29",
":. c #8B5D29",
">. c #8A5525",
",. c #935E2A",
"<. c #985B24",
"1. c #9C4332",
"2. c #8A5236",
"3. c #A6432E",
"4. c #AB4932",
"5. c #A94731",
"6. c #8C612D",
"7. c #896127",
"8. c #92652D",
"9. c #9A6A2E",
"0. c #8A6836",
"q. c #946931",
"w. c #9B6D33",
"e. c #926433",
"r. c #8A763C",
"t. c #977835",
"y. c #93712E",
"u. c #A76928",
"i. c #A9742D",
"p. c #B37A2E",
"a. c #A47336",
"s. c #A3753B",
"d. c #A97A39",
"f. c #AC7831",
"g. c #C3563F",
"h. c #996B46",
"j. c #867649",
"k. c #9B7447",
"l. c #867756",
"z. c #8C7150",
"x. c #AA7C43",
"c. c #A3784E",
"v. c #A47945",
"b. c #A37950",
"n. c #87796B",
"m. c #8B7871",
"M. c #6D8537",
"N. c #74847C",
"B. c #9B833A",
"V. c #A7883B",
"C. c #BB8432",
"Z. c #B88634",
"A. c #B7913B",
"S. c #C5973B",
"D. c #C18E36",
"F. c #CAA03E",
"G. c #95874C",
"H. c #A88844",
"J. c #B69946",
"K. c #A69659",
"L. c #BB9554",
"P. c #AD8D4A",
"I. c #B5A350",
"U. c #948668",
"Y. c #93887C",
"T. c #8C8872",
"R. c #A89770",
"E. c #ADA370",
"W. c #C29D55",
"Q. c #C8A847",
"!. c #D3AD45",
"~. c #D3AF48",
"^. c #D5B549",
"/. c #D6B94B",
"(. c #D9BB4B",
"). c #D6B347",
"_. c #C7A25B",
"`. c #D0B452",
"'. c #CDA764",
"]. c #D2AD6B",
"[. c #E1BF4D",
"{. c #DEC050",
"}. c #E1C14F",
"|. c #E3C551",
" X c #E8CB53",
".X c #EED256",
"XX c #EBD75C",
"oX c #F3DA5A",
"OX c #F7E45E",
"+X c #FAED62",
"@X c #FDF465",
"#X c #CFC364",
"$X c #2D5484",
"%X c #345A8A",
"&X c #365F93",
"*X c #386399",
"=X c #386296",
"-X c #3E618C",
";X c #3C6AA5",
":X c #547087",
">X c #6B798A",
",X c #4176B8",
"<X c #576EAE",
"1X c #445CA8",
"2X c #8D6CA9",
"3X c #7B8489",
"4X c #6E8B95",
"5X c #7AA7B2",
"6X c #5F899F",
"7X c #61AED4",
"8X c #76C7E6",
"9X c #958B86",
"0X c #9B9793",
"qX c #91908B",
"wX c #AA998D",
"eX c #AAA39C",
"rX c #B9A495",
"tX c #BBAB9C",
"yX c #B9A79A",
"uX c #B6AA88",
"iX c #90ACAF",
"pX c #BDB5AC",
"aX c #BDB5A7",
"sX c #B2AFAD",
"dX c #8E9CA4",
"fX c #C0BAAD",
"gX c #C3BCB6",
"hX c #AEC7AE",
"jX c #C8C1BA",
"kX c #CCC489",
"lX c #B696C5",
"zX c #CC8FD5",
"xX c #B0D3CE",
"cX c #BAF1F0",
"vX c #A1D1D3",
"bX c #CEC8C2",
"nX c #D2CCC6",
"mX c #DCD7D1",
"MX c #DCDAD2",
"NX c #D5D3CD",
"BX c #C2FBFC",
"VX c #F4F1DC",
/* pixels */
"0X6 6 0 0 0 0 0 0 0 0 O.0 0 O.0 0 0 O.0 0 0 0 0 0 0 0 0 0 0 gXfXfXfX0 0 0 0 0 0 0 0 0 0 0 0 0 0 8 0 0 0 0 0 0 0 0 O.O.+.O.O.gX0X",
"6 3 6 4.5.5.5.4.4.5.+.+.+.+.+.0 q q 0 0 0 0 O.O.0 +.+.+.O.+.+.fXfX0 g.g.g.g.0 0 0 0 0 0 0 0 0 0 0 0 0 0 0 %.O.O.4.O.O.O.P 0 6 0X",
"6 5.h.:.9.s.x.x.x.x.x.x.s.s.v.x.x.x.x.x.H.d.v.v.x.v.x.x.x.x.H.x.x.P.x.v.s.s.s.s.a.s.v.v.h.s.s.s.s.s.h.a.s.v.s.v.v.v.s.e.6.2.6 fX",
"6 5.V 8.x.W._.'.].].'._._._._.'.'.'.'.].].'._._._.'.].].].].].].].].'._.W.L.L.L.W.W._._.W.W.L.L.L.L.L.L.W.W._._.'._._.L.H.e.6 fX",
"6 5.v.:.:.8.w.s.x.d.P.H.P.P.x.P.V.x.d.x.d.s.s.a.a.s.v.s.d.s.s.s.d.v.s.s.w.h.a.a.a.s.a.s.s.w.w.a.a.w.a.a.s.w.s.s.a.w.q.;.M b 0 fX",
"3 5.c.,.&.s c c m &.>.*.>.,.,.<.=.=.*.;.m m m *.&.&.&.&.v *.*.&.v *.&.&.&.&.&.v m &.v m *.m m *.&.v v v b v b v c s d d b ; 0 fX",
"3 5.k.,.*., * * * * * * * > > > > , , > u , > > , > > , , , , , , , < > > > , , > > , > , , , > , > = - * * * * * * i m v z O.fX",
"3 5.b.s.9.i * * * * > < < a a < a a a s a s a a b a a a c a a a a a a a a a a b a s a a a s s a b a < < , = * * * * p 7.=.w o.yX",
"3 o.c.d.w.x * * * > < a v *.-.:.7.7.8.:.:.7.6.:.7.6.6.6.:.7.6.6.:.6.:.6.7.7.:.6.:.:.7.:.:.:.-.:.-.-.*.d a < = * * * b 6.m z 0 9X",
"4 o.b.a.w.i * * = < < a v *.:.8.7.y.8.8.8.8.q.6.6.8.q.6.8.q.8.q.8.8.8.8.8.7.q.8.8.q.q.8.8.8.6.:.;.-.>.c a < < - * * c 6.;.z 9 9X",
"4 8 b.a.w.i = , < a > = * - , , > Z Z Z u u u u u u , u u u u u u u u u u u u - u l u > < < < ; , , - - * < a > = - v 6.m z 4 9X",
"4 7 c.a.w.p = , s &.< = I I e O e e e e t e e O t I I ^ t t ` I Y T.| Q N.xXBXhXcXcX5X} [ -X:X>XdXiX0X3X- < d < = > c :.7.z m.Y.",
"4 q k.d.w.i = u v -.u : I e O O e e o y y e e e t ^ t _ ^ ^ <X_ ^ 1X.._ <X3XsXiXxXxXcX} } } :X5XsXxXMXxX; b &.i - , m 6.M z 6 9X",
"2 7 k.d.w.i - a &.>.i : I t r e o e y B M.y e t ^ _ ] { | N  .' ) T...] N.U.>X4X0XxXcX5X4X5XiXsXNXVXVXVX; v *.< , i =.6.;.z 2 9X",
"rXY.k.a.w.i > a &.>.< : I I I I e e e y G.M.t t I _ | j.U.] K.E.G.E.K.U.uX..0XN.3XcXcXvX:X6X4XdXlXmXVXVX, v -.p > i >.:.m z 4 T.",
"0X0Xh.a.w.b > a &.-.i : I I I I t t y y B B @ t I U U.R.K.E.K.C G.G.P.G.G.I.K.E.5XdX4XiX:X} | 4XiXiXkXgXl m :.a , a *.:.m z 0X0X",
"9 9 e.a.w.b < s m >.i : t I I t t h B.`.{.{.I.C k y M.j.k.V.J.{.}..XOX.X XI.P.V r.J.Q.J.j.^ { :X:X>XE.Y.p *.:.c u a *.-.m z 0 0 ",
"4.4.h.a.w.v < s >.6.p : t I t t h V.|.OX+X+X+XXX/.C V J.~./././. X+X@X@XOX|.{.V.B.{.|.OXXXI.k ! } | J.U.b *.>.s , a *.:.m z 4.4.",
"4.4.c.a.w.c < s >.8.p ; I I I r B./. XOX@X@X@X@XoX(.(././././.{. XoX+X+XOX X}.}.V.A.|.OX@XXXP.Y R Y J.K.b d *.a i a *.-.*.z 4.4.",
"5.4.c.a.w.v < s *.,.c f t I e N I.{.}. X.X.XOXOXoX[.(.(.{././.{.}. X X X X XoX X{.r.F..X+X+X`.k D Y I.K.b &.>.s < a *.-.m z 4.4.",
"5.+.b.a.w.c < s &.>.s ; t r o B./.(.{.{.{.!.).}.[.(.(.(./././././.}.{.}.{.{. XoX{.B.Z.{.oXOX{.^ Y F I.B.x m >.s < < *.:.m z 4.4.",
"+.@.c.a.w.v < s &.>.a u t t N I./././.).S.C.C.D.).(.(.(././.!.J./././././.^.J.{.{.B.i.!.|. X{.k Y Y I.B.p =.-.c < b *.:.m z 4.4.",
"o.+.k.a.w.c < s *.:.s Z t t C Q./.(./.!.C.Z.C.C.S.(././././.B.^.(.(././.{./.Q.A.).B.i.F.{.|.I.k I M.E.M.c =.7.c i a &.:.m z 5.+.",
"+.o.h.a.w.v < s *.8.c Z t t C !.(././.!.Z.C.p.C.A././././.^.!.(.).).).!.).!.^.J.(.t.V.^.{.|.B.U B M.M.M.x -.:.v < a *.6.m z +.o.",
"o.o.h.9.q.s u a &.-.s u t t g Q./.).(.!.D.C.p.Z.C.~.(.(.(.(.).J.!.!.).(.).!.A.)./.0.S./.(.Q.U.vX} _ `.V.x =.q.c < a -.6.*.z q o.",
"o.7 h.e.6.s i a *.,.s f t o # y.F.!.!.!.S.C.p.p.u.S./.(.(.).A.J.!.).}.oX X).A.A.Q.y.^./.!.r.vXcX4X` `.Q.n -.q.m < s =.6.;.z 6 o.",
"O.X.h.9.8.s < s >.8.c f o @ @ ; Z.C.S.D.D.p.u.u.<.C././.(.(.!.!.!./. X@XOX[.).!.m S.Q.S.f...cXBXN.B A.`.c :.q.c i a >.8.;.z 7 7 ",
"6 9 h.u.w.c < s >.8.c l @ @ @ # m C.C.C.C.C.p.u.u.i././.)././.).).}..X@XOX.X(.V.>.p.D.C.n iXcX4XI B M.I.x -.q.c i a -.6.;.; 6 6 ",
"3 8 k.a.w.c < s *.8.c ; @ @ @ # . n i.p.C.C.C.p.i.u.!.(.(.(././.(.}..X@X@X.X}.y.>.p.p.u.y 6XvXU t B M.M.c 7.q.m i a -.w.6.z 3 3 ",
"3 8 k.a.w.d < s *.8.v l @ @ # o e o y p <.u.p.C.p.D.S.(.(.)./.{.(.[..X@X@X.X(.7.>.u.i.< F Q 5Xe r r.V B x -.8.m i a :.w.6.w 4 4 ",
"7 X.k.d.w.c < d *.8.c l # . o O e o e X # a <.i.D.p.D.F.).(.A.).(.[. X+X@X.XS.*.&.<.>.5 T R } e g C 7.C c :.q.c i a :.w.6.z 4 4 ",
"fX0Xb.d.w.c < s >.8.s ; . O O O e e o e o h b <.u.D.u.<.F.).A.V.(.(. XoX@X|.7.>.&.<.i D D Y R r k B.i.t.x -.8.m i a 7.w.6.z fXaX",
"0 0 c.a.w.c < s *.8.c f X e O O O O e @ / eXY.w <.u.u.= 9.F.G.C ).(.}. XOX(.j N v >.5 zX-XL R } G.J.0.r.x :.q.m i p :.w.6.z 0 0 ",
"4.4.b.d.w.c < d *.q.s f X o O e O e e >XnXpXfXY.; >.&.5 p 6X8X4X!.).(.{.}.(.4X5X*.5 m.lXzXR D { I.J.y.k c :.q.c i a :.w.6.z 4.5.",
"4.4.b.a.w.v < s >.8.c u . . o O O r pXNXmXNXjXfX9X) ' 0X..7X7X7XV./././.(.{.N.6X5 0XqX0XlX2XR ` #XA.G.vXc ;.y.m i p -.w.:.z g.g.",
"4.4.c.a.w.c < s *.8.s Z . . . . F | bX0XmXjX0XnXsXsXjX0X0XqX,X8Xr.)./.{.{. XG.4XwXeXnXMXbXlX{ z.{.V.K.BXx :.6.c i a :.w.6.z g.g.",
"4.4.c.a.w.c i s >.8.s u . . . . R :XnXmXmXmXmXmXmXmXmXNXmXbX9X5 q.!.(.(.}.oX Xn.aXmXnXMXgXgX9XP.J.V.R.hXx =.q.m < a :.w.6.z 4.4.",
"4.3.v.a.w.c < s =.8.c ; $ $ o m ) E >XnXmXjXnXmXmXfXgXmXmXbXm.9Xn.C ~.(.}. XOXB.0XMXjXpXbX0X-Xl.J.P.I.J.x 7.q.c < b :.w.6.z 4.1.",
"1.4.k.a.q.s < s *.8.c u A 5 j.d.k.[ Q 3XfXwXbXmXmXnXmXmXpXNXfXeXY. .] A.(. XoXXXU.jXjXtX>X1X*X*X} j.V.V.s ;.q.m < s :.w.,.x 4.5.",
"1.1.h.w.8.c < s >.8.c f ^ N M H.Q. .&XQ :XsXfXbXmXmXmXnXeXjXfXeXwXY.m.` V.{. XoX`.' pX3X%X-X1X,X,XQ H.Q.c 7.q.c < a :.w.6.z +.+.",
"o.1.v.9.8.s , s *.8.v ; 0.j.z.K.].K.=X;X%XQ 0XgX0XnXnXnXgXgXpXY.yX..n.9X( a.).}.|.P...R E =X*X*X=X&X^ y.x =.q.c a a ,.w.:.z 0 %.",
"9 O.h.w.8.p i s *.8.c ; i.k.h.x.E.I. .;X*X$XQ qXpXpXm.gXfX9XpXgXeX9X9XY.n.' i.!.(.(.V W G $X=X*XE { N h c 7.8.m < a :.w.6.z 9 3.",
"O.0 c.w.6.s i s *.8.c ; B.G.0.f.G.Q.j.T %X%XE J | eXyXfXpXeXfXpX9X9XsXY.z.m.' 6.Z.D.Z.Y T $X%X&X .P.Q.] x -.8.m < a :.w.6.z 8 0 ",
"9 9 c.w.8.s < s >.8.c f r.H.l.U.z.Q.a.( T J J E E T { >XqX3Xm...0XgXjXeXU.m...S D F j j J W W l.`.+XOXG.u m q.m i s :.w.6.z 8 8 ",
"8 0 c.w.6.p i s >.,.b ; # i.a.j.j 6.2.7 7 G $XE E $XE E E W ( 0XaXjXgXT.wXE.m.{ %X=X%XE E T ` J.|.XXU. .b -.q.c i a :.w.6.z 8 8 ",
"8 8 k.w.q.s i s >.8.c , # j L.j.j 5 1 X.1 E E $X$X$X$X$X%X%X] eXpXjXR.rXz.U.E.)  .*X;X*X&X^ q.D._.U._ ` x ;.q.c i s :.w.6.z 7 8 ",
"7 7 k.9.q.s u s *.8.b ; K K K K K 5 X.X.3 E E &X*X*X=X&X=X[ l.tXjXjXR.wXl.n.E.z.%X1X,X;X&X( d.d.n...] #Xl m 8.m i a :.w.:.z 7 7 ",
"4 4 k.9.w.s < s *.e.v ; @ # # # # 3 X.X.6 $X$X&X=X;X,X,X=X| n.lXjXjXpXU.R.wXwXT.[ *X,X,X*XF e.'  .] I.#Xl m 8.v < a :.w.6.z 3 3 ",
"tXaXh.a.w.c i s *.8.c ; S @ K K K 8 $.$.4 $X$X&X&X1X;X;X=X' ) ' m.9XwX9Xz.m.n.z./ &X;X*X*XL 6 { ] A.r.K.l m q.m u a :.w.6.z fXfX",
"9 0 h.w.w.c i s *.8.c , S K S K K o.#.$.4 $X$X&X*X&X*X;X=X' S 5 w w P P w L 2 h l.:X=X*X*XL X.5 0.K.r.S.l m q.m i a :.w.6.z 9 9 ",
"1.1.h.u.w.v < s &.>.s ; K S K K 5 @.$.$.7 $XE $X&X*X*X*X%Xl.A H G G H H H H H Y / =X=X=X=XL @.6 ^ j.P.B.u m q.m i p :.w.,.z 0 +.",
"1.%.h.a.w.s < s &.>.p : @ K K S 3 $.$.$.0 ( E $X*X*X*X*XQ j.A G G G G G G G H D ( | -X=X%Xq $.o.D U ^ F - c 7.v i a :.9.6.z 5.5.",
"4.4.k.a.9.c , a v >.i ; @ S # $ 1 %.$.$.1 5 ) ! &X*X%X' ` ] H G G G G H G G G A V v.| } ) o.#.#.w [ Q Q ; s >.d < i =.w.6.z 5.5.",
"4.4.k.w.e.a > u c -.i ; F F $   @.$.$.$.1 A F N / } { H.P.F G G G H A A ~ T G H D ) ] ] z X.$.#.8 D ^ ` u p *.a , , *.w.:.z +.3.",
"4.4.b.w.6.i - > < v > = 5 ; 5 ; x x g x x n n n n n n M M M n n M b q N M N M n n x c x n n x x x x g Z Z , s < - , m w.6.z %.3.",
"4.4.b.w.6.i * - < < , , < b < < p p p p p c c s v v v c c c c m v b v b c m c c v m d s c p u p p p i i i p i - = - m w.6.z %.+.",
"5.O.h.9.7.u * * - > < d *.,.8.9.w.q.w.w.w.w.w.w.w.9.w.w.w.9.w.w.w.w.w.w.w.w.w.w.w.w.w.w.w.9.w.w.w.q.q.,.-.v , = * - m q.6.z %.%.",
"O.O.h.9.8.u * * * = = > , < i b s c c m *.*.*.*.*.&.m *.*.m m *.2.&.*.&.m *.*.m m *.m *.*.m m s c c a i , - * * * = c :.;.z %.%.",
"9 9 h.8.-.u * = = = = , > < a s s s d &.d v &.*.*.v m &.v &.&.&.v &.&.&.&.&.d *.&.&.&.&.v &.d d a a a < , - = = = * p -.m z 8 7 ",
"9 7 h.>.&.i > u < b s &.&.*.,.,.,.,.<.8.8.<.,.,.,.,.,.,.<.8.,.8.,.,.,.,.,.,.,.,.,.,.,.,.,.,.,.,.,.:.*.v v c i i , , i v v z 7 8 ",
"7 7 0.&.d d *.-.:.8.w.w.a.a.a.a.a.a.a.s.a.a.a.a.a.a.a.d.a.a.a.a.a.s.a.s.a.a.a.a.d.a.s.a.a.a.a.s.s.s.w.a.w.w.e.8.:.>.&.c x z 3 6 ",
"2 7 V < u i a a c v m m m m m m m *.m m m =.m v m m m m m m m *.m m m m m m m m m v m m m m *.v *.m m m &.M c c b < < > > ; & & ",
"2 2 2 2 2 2 2 2       % % % % m.n.n.% % 3 6 6 6 3 3 3 % 3 3 3 3 4 3 &   & 2 4 3 3 4 3 & & & & ( ( & % % % % % 2 % % % % & & & & ",
"fXyXfXtXyXrXrXrXrXrXrXrXrXrXrXrXrXtXrXyXtXtXtXaXtXtXtXtXtXtXyXtXtXtXtXtXtXtXtXtXrXrXrXwXrXrXrXrXyXtXyXrXrXrXyXrXrXrXrXyXtXyXyXrX"
};
