/* XPM */
static char *bd5104feb90741badaf28208694c95f7RJBaYe5LGMMZ9Lcm[] = {
/* columns rows colors chars-per-pixel */
"64 64 216 2 ",
"   c #010000",
".  c #0E0A05",
"X  c #1B140C",
"o  c #171512",
"O  c #2D1A1A",
"+  c #271D11",
"@  c #341E1E",
"#  c #2A1C0E",
"$  c #2E2114",
"%  c #342414",
"&  c #3A2818",
"*  c #322B2A",
"=  c #383735",
"-  c #262524",
";  c #441D1D",
":  c #481F1F",
">  c #422D1A",
",  c #452719",
"<  c #46311C",
"1  c #4B341D",
"2  c #51371D",
"3  c #4B2121",
"4  c #472020",
"5  c #542323",
"6  c #5C2524",
"7  c #5F2925",
"8  c #5D2929",
"9  c #4C3926",
"0  c #543C23",
"q  c #543D29",
"w  c #4A3432",
"e  c #622726",
"r  c #6D2926",
"t  c #642929",
"y  c #6C2B2B",
"u  c #652A26",
"i  c #752B25",
"p  c #7B2C24",
"a  c #732E2B",
"s  c #782F2B",
"d  c #6A312D",
"f  c #75322C",
"g  c #7C322D",
"h  c #7E382E",
"j  c #683534",
"k  c #753231",
"l  c #793332",
"z  c #7C3933",
"x  c #773B39",
"c  c #5A4126",
"v  c #5D4429",
"b  c #5F482B",
"n  c #56422C",
"m  c #584735",
"M  c #4E443E",
"N  c #61462A",
"B  c #654A2D",
"V  c #694D2E",
"C  c #604324",
"Z  c #6F512F",
"A  c #6A4E30",
"S  c #644D34",
"D  c #6D5232",
"F  c #6A543C",
"G  c #715534",
"H  c #755937",
"J  c #765A39",
"K  c #7B5D3A",
"L  c #7B5936",
"P  c #7F403E",
"I  c #7E603C",
"U  c #494847",
"Y  c #574E46",
"T  c #59534C",
"R  c #575554",
"E  c #695745",
"W  c #745E46",
"Q  c #685D56",
"!  c #6C6259",
"~  c #766857",
"^  c #6B6967",
"/  c #756F68",
"(  c #74736F",
")  c #7B7368",
"_  c #787775",
"`  c #802F27",
"'  c #84332B",
"]  c #8A362C",
"[  c #8D392F",
"{  c #953C2D",
"}  c #993E2E",
"|  c #9C3826",
" . c #833631",
".. c #843A33",
"X. c #8A3A32",
"o. c #863D38",
"O. c #913C32",
"+. c #A23E2A",
"@. c #89433D",
"#. c #934236",
"$. c #9C4332",
"%. c #95473C",
"&. c #815F3A",
"*. c #99402F",
"=. c #A5432E",
"-. c #A8452F",
";. c #A74B2E",
":. c #A54631",
">. c #A94731",
",. c #A74933",
"<. c #AB4932",
"1. c #AB4E39",
"2. c #A34E3B",
"3. c #AB5136",
"4. c #82633E",
"5. c #8A663D",
"6. c #916B3F",
"7. c #C3563F",
"8. c #884642",
"9. c #964B43",
"0. c #995149",
"q. c #AA5744",
"w. c #B45C48",
"e. c #856641",
"r. c #8B6B44",
"t. c #876943",
"y. c #926E45",
"u. c #8E7048",
"i. c #937146",
"p. c #957349",
"a. c #99764B",
"s. c #9C7A4D",
"d. c #997447",
"f. c #836B52",
"g. c #8A7357",
"h. c #9B7D59",
"j. c #A27C4E",
"k. c #B56756",
"l. c #A17E50",
"z. c #AE6556",
"x. c #836B66",
"c. c #89756D",
"v. c #977D62",
"b. c #887B75",
"n. c #B1766D",
"m. c #C35841",
"M. c #9B8257",
"N. c #A48353",
"B. c #AA8554",
"V. c #AC8956",
"C. c #A38958",
"Z. c #AC8C59",
"A. c #A3875A",
"S. c #B28D59",
"D. c #BA945E",
"F. c #B6935D",
"G. c #9D8266",
"H. c #898279",
"J. c #92847C",
"K. c #BD9660",
"L. c #BC9B62",
"P. c #B59762",
"I. c #AD916F",
"U. c #BEA26A",
"Y. c #C29C63",
"T. c #CBA569",
"R. c #CCAC6D",
"E. c #C4A166",
"W. c #CAAB73",
"Q. c #CEB678",
"!. c #CCB376",
"~. c #D5BA7C",
"^. c #D9B976",
"/. c #D2AF70",
"(. c #DDC17D",
"). c #8C8B8A",
"_. c #858484",
"`. c #958B85",
"'. c #958A84",
"]. c #99948D",
"[. c #9B9388",
"{. c #939393",
"}. c #9B9790",
"|. c #9B9891",
" X c #9C9B9B",
".X c #B79F92",
"XX c #B09485",
"oX c #A3A19D",
"OX c #B9A495",
"+X c #BBAC9C",
"@X c #B9A79A",
"#X c #B9A38F",
"$X c #A4A4A4",
"%X c #ABABAB",
"&X c #AEA8A1",
"*X c #BEB3A3",
"=X c #BEB7A8",
"-X c #BFB9AB",
";X c #B3B3B3",
":X c #BBBBBB",
">X c #B1AFAD",
",X c #C0BBAD",
"<X c #DAC687",
"1X c #E4CB87",
"2X c #E6D18D",
"3X c #E5D392",
"4X c #C9C4BF",
"5X c #C3C3C3",
"6X c #CBCBCB",
"7X c #CAC8C5",
"8X c #D3D3D3",
"9X c gray86",
"0X c #E5E5E5",
"qX c #EBEBEB",
"wX c #F4F4F4",
"eX c #F9F9F9",
/* pixels */
"|.8 t l l l l l l l l l  .l  .l l  .l  .l l l l l l l l l l ,X,X,X,Xk l l l l l l l l l l l l l l l l l l l l l l o.l o.X.o.,X}.",
"t 8 8 <.<.<.<.<.<.>.O.{ O.O.O.l l l l l l l l  .l O.O.O.z O.O.,X,Xl 7.7.7.m.l l l l l l l l l l l l l l l <.l  .>.o.X.X.l l t }.",
"t <.<.<.<.<.<.<.<.O.<.<.O.:.<.:.:.<.<.<.<.<.<.<.O.O.O.<.O.O.O.,Xl m.1.3.<.<.<.<.m.<.<.<.:.>.<.<.<.<.:.l <.<.<.,.>.:.o.l l l e ,X",
"8 <.<.<.<.<.<.<.<.<.<.<.<.O.<.<.<.,.<.<.<.<.<.<.<.O.<.k.1.p.V d N C d F m.3.<.<.<.<.<.<.m.:.>.,.:.<.<.>.<.<.<. .>.,.X.o.o.l e ,X",
"8 >.<.>.<.>.O.<.<.<.<.<.O.<.O.O.O.O.<.<.<.<.<.,.1.1.k.<.I.S.j.d.d.y.d.r.! 2.<.1.<.<.<.<.<.<.,.>.<.:. .<.<.<.<.<.,.<. .X.X.l l *X",
"8 -.>.>.>.X.O.X.>.>.O.>.O.O.O.O.>.O.O.>.:.k.k.k.1.w.q.v.l.Y.S.l.j.j.j.d.B b.1.<.<.<.,.<.,.>.<.<.<.<.X.<.,.X.>.>.:.,.<.>.o.l l =X",
"8 :.[ O.{ X.O.{ O.X.{ [ O.O.O.O.O.O.O.O.O.<.<.<.q.1.v.y.l.Y.S.l.l.B.j.d.V 1 Q 1.1.%.@.1.@.1.0.8. .:. . . .X.X.X. .X.X. . .:.X.*X",
"6 =.[ [ =.[ [ [ { [ [ O.[ X.g X.O.[ O.%.9.0.9.O.9.G.l.l.D.~.Y.Y.K.Y.S.j.Z q b T o.X.<.X.X.X...9.X.X.X.X.X. . .X.X. .X. . . . .+X",
"5 [ ] [ [ [ k [ [ a [ [ [ k k k a X.O.%.1.9.$.P I.s.j.V.E.(.T.E.Y.Y.K.S.&.V 0 c ! [ ..] ..X.0.X.l l l ]  . .]  . . .X.'  .'  .'.",
"5 ] ] ] ] ] y a a a k X.[ ] [ a X.k O.g.5.6.6.6.p.j.B.Y./.(.~.R.T.T.T.K.d.L V d > & 2 C d f.8.k k a  .k  . . . .' ' +.s s ' g '.",
"5 a ] ] ] ] ] ] a a k a ] [ ] ] a a j G.B.Y.D.j.N.V.D./.(.<X<X(./.R.Y.S.j.d.&.B 2 2 H 4.G Q k y y y y y y y y y y s s y s s 3 '.",
"5 a ] y y ] y a y a y y y ] a y a y 8.G.V.Y.K.l.D.R.^.^.!.C.M.M.s.s.d.5.S.j.y.L C C &.4.G E j y y y y y 5 y t t t t s y s t c.'.",
"5 y a y ' ] y a y y a y ] y y y 5 5 j I.D.T.D.B.L.^.(.R.Z.I I I K K H H p.B.B.y.Z V 4.6.&.W j t y e 3 3 x 4 3 e e e e e e r e '.",
"3 y y ' y y y y y y 5 5 5 5 5 5 3 3 j I.T.^.E.V.Y.^./.N.I I I I 4.K K J G y.V.j.&.Z 5.a.y.f.j 5 e : : 3 e 4 4 8 6 6 6 6 e 6 : '.",
"OXb.y y a 5 5 5 6 5 5 5 5 5 5 J.= U T I.R.(./.Y.R./.M.5.I I I I I G A V V G t.V.y.&.j.j.d.f.d y 5 @ @ 5 5 5 @ 5 y y y y e 5 5 b.",
"|.|.|.|.|.|.:X-X-X-X-X,X,X,X,X|.}.}.oXW.^.1X1X^.Y.C.I I I I I I I H D B B B G y.j.V.D.Y.S.h.,X,X-X-X-X-X,X,X-X-X-X=X,X,X= = |.|.",
" .l l l l e * U }.l l l l l l l l l l I.!.<X<XU.C.4.I I I J I J H H G B V B B Z p.S.Y.Y.D.G.l x 1.<.<.<.l l l l l l  .l >.<.l l ",
"<.<.<.l l l l = }.l l m.7.7.<.<.<.<.1.f.t.u.r.t.4.I I I K A B B V V V V B V B V D D H H V ! l <.1.w.1.1.<.<.l >.<.>.>.m.<.>.<.<.",
"<.<.<.<.<.l k l |.l <.<.>.7.<.<.<.<.<.E c v n n b v v v c c 2 c 0 0 0 0 0 1 < < < < > < & T k <.1.w.1.q.<.<.<.<.<.<.<.m.m.<.>.<.",
"<.<.<.<.<.>.l l }.g <.7.7.<.<.<.m.m.1.W 0 1 0 c c c c c c c c c c c n c 0 1 > > > > , % % M 1.<.<.q.1.w.<.1.<.<.<.<.<.<.>.<.<.<.",
"+.O.O.O.>.<.l l ,Xs -.<.<.X.<.1.<.<.u.p.N 0 N H J I J J J J J I K K K H V N N N b N c & # & w 3.<.w.1.9.} 1.1.<.<.<.1.<.<.<.>.<.",
"} [ O.O.O.+.<.l ,X-.>.<...X.<.<.<.h.j.V.A 1 0 c c c c c c c c c c q 0 < > > > > > > > % % > & Q <.q.<.q.<.O.,.<.>.<.<.>.>.>.>.>.",
"O.[ [ O.[ O.+.l ,X-.-.-.-.-.-.<.G.j.D.Y.r.N 1 9 c v v v v v b c 0 0 1 < < < < 1 < > & % & < 9 < T O.O.O.O.9.<.<.:.:.:.:.<.+.>.O.",
"[ [ [ [ [ O.>.l ,X-.-.=...1.@.5.j.F.T.^.D.4.0 N J 4.I 4.4.4.4.J V D A V A A V V V C 1 % & 2 N c , & O.O.0.0.+.+.O.[ O.>.+.[ [ { ",
"[ ] ] [ ] ] [ l ,Xy +.+.' =.h.j.S.R.(.2XR.s.D I 6.a.p.p.u.p.p.u.y.t.e.e.e.e.e.e.4.I v 1 2 b V B d 1 Y ] X.n.O.] [ ] [ ] ] ] y [ ",
"] y ] ] ] ] ] y *Xy  .+.=. .p.F.T.~.1X~.F.p.4.M.a.4.I G G F H H G D A D S D D e.u.5.I b b G D D B q , ] ' 9.9.] ] ] ] ] ] ] y ] ",
"' ` ` ' ` ` y y *Xy ` s g h j./.~.2X1XK.i.u.N.Z.p.J n n n n 9 n 9 9 9 n q 9 n D 6.M.a.I H I I H V V 0 ` ' x %.' ` ` y ] ] ` y e ",
"e ` ` ` ` ` e e `.p t t y y Y.~.3X~.K.p.i.N.N.i.F m H._.).).( R = T ^ _ _ ^ R n D i.B.s.4.G J I H V 9 ` t t @.` ` ` ` e e e e e ",
"e ` p p p p 6 6 * a e x t 8 W.2X~.K.s.p.N.N.i.A E _ %X;X;X;X$X_ = ^ _.). X).( T b G p.N.s.4.H J I G 0 6 e 6 j 8 6 6 e p p p 6 6 ",
"5 p p p i p 6 6 * - e w 3 j <X3XL.s.r.s.N.p.D m ) %X5X7X6X7X6X XU ( _.{.%X$X{.( Y n H M.B.s.I H I I 0 5 6 5 8 5 6 5 i 5 i 6 5 6 ",
"e ` ] ] e e e XX^ - - 4 * - ^.<Xh.p.l.V.u.D m ! ].:X5X7X6X6X6X$XR _ _.). X%X%X).( T m G p.Z.s.I G I 2 5 : 5 t e 6 6 5 6 6 6 6 5 ",
",X].}.}.].|.( ( _ ( |.|.|.|.K.Z.s.d.N.V.J m T _ {.;X5X9X0X0XqX;XR ). X X X$X%X X).^ T b 4.Z.N.i.5.I 1 =X,X,X-X,X,X,X-X-X-X,X,X=X",
" .l l l l l l l l l l l z z p.y.a.a.N.B.B m ^ _.{.;X5X0XeXeXeX:XR %X:X%X$X$X%X;X$X_.^ w J Z.s.s.i.4.1 z h U ( }.}.f l l l l l g ",
"<.<.-.<.7.7.7.7.m.<.<.<.1.1.H r.a.a.N.C.A M _.). X;X8XqXwXwXeX:XU 5X8X%X%X%X%X6X;X{.^ 9 J Z.N.s.p.I 1 x h 0 U }.l l <.<.l <.<.>.",
"1.<.<.<.<.<.<.<.<.<.<.<.1.2.V t.a.s.N.a.b T ).%X%X%X:X9XqXwXeX$X- ;XqX9X:X;X:X5X6X%X^ n H Z.N.s.p.I 1 ;.3.3.8 |.l <.l <.>.<.m.7.",
"<.<.<.<.<.<.<.<.<.>.<.<.<.<.N 4.r.i.s.i.b E }.7X:X$X). X$X%X{.R   ;XqXqX8X6X5X5X5X%X_ m D C.s.i.6.I < @.3.3.8 |.l l <.<.<.<.7.7.",
"<.<.<.<.<.<.<.<.<.<.<.<.$.$.B W I y.p.i.B T ].8X8X%X_ ^ ^ ( R = = 5XwXqXqX9X6X5X;X X_ m G p.p.r.I I 1 #.h ;.f |.l <.<.<.<.7.<.<.",
"<.:.<.<.<.<.<.$.<.<.$.$.$.$.B K I 4.r.i.B M _.8XqX6X$X{. X:X:X5X5X9XqXqXqX9X6X:X%X X( E I i.r.I I I 1 ] h h z |.l <.<.<.7.>.<.$.",
"$.<.<.$.<.$.$.$.$.$.$.$.%.:.$.S I I e.i.D m _ :X0X0X6X5X5X8X0XqXqXqXqXqXqX0X8X5X%X{.^ F I i.4.I I b P Z z z f |.s <.>.<.7.>.-.-.",
"$.$.$.<.$.<.$.$.$. .$.:.$.$.$.$.F J e.r.I E ^ $X6XqXqX9X8X8X9X0XqXqX0X0X0X9X8X5X$X_.! I r.i.4.I S 2.;.@.P f f |.l >.>.-.-.-.*.*.",
" .$.$.$.$.$.$. .} $.o.o.o.n.z.%.#.D I W i.4.W _ >X9XwX0X8X8X8X9X0XqX0X0X8X8X6X:X X) J M.C.p.4.B Z ' ..h z k f }.a :.:.+. . .g } ",
" . .$.} $.$. . .o.}  .} } q.o.$.$.#.B I 5.r.5.W c.>X9X0X9X5X5X5X6X9X9X8X8X6X:X$XH.f.M.N.s.I B h ] ;.P h h h f =Xa a :.} s +.s =.",
" . . . .}  . . . . . .l  . .$.o.@...$.D J 5.r.I ~ H.+X7X6X5X:X;X;X5X6X6X:X&X[.H.M.N.N.6.I W h h h h h ;.h h f =Xa a +.s s g s s ",
"g g s  .l  . . .l l l l  . . .$.@.%.z h D I 4.p.u.I t.J.-X7X>XoX$X$X;X;X{.G.5.t.P.L.M.5.D d f d h g f h f d f *Xy +.+.l s y s s ",
"s s s s g g =.s d k a k a g l @. .{ z z z N I 4.r.p.C.C.G.v.g.g.~ g.g.g.G.I.U.Z.C.M.I b d f d f i f f f f d 5 *X.X+.y i y y a a ",
"a a p r s s s s y 5 5 y y y y k l l y 8.k x F I t.p.B.V.N.C.A.A.C.A.A.N.C.F.F.N.p.I F d 3 u d f u u u u t 3 3 `.e | e e e t r r ",
"r r r r r r r 8 4 3 4 e t e e e t t t t d d m H I e.p.N.L.!.Q.Q.Q.Q.Q.!.D.N.y.I I D 0 t , 3 u 8 7 e 7 7 3 O c.`.e e e 6 ; 6 r r ",
"5 5 e 5 5 5 5 Y U T T O O O ; : : : 4 4 3 3 m G I I I 5.u.N.N.N.N.N.A.N.N.r.I I I D x.x.x.x., 6 6 6 2 7 O O c.`.x.6 6 ; ; 6 6 6 ",
"*X*X*X+X*X'.'.`.`.'.b.b.J.J.'.`.`.+X+X*X*X+X*XE V &.I 5.i.s.a.s.s.s.s.s.u.5.I 4.A ].].].`.`.`.`.^ *X/ -X=X].].|.].].].,X].,X,X*X",
"s l l l l l e e l >.<.<.<.<.<. .-Xt j z l z l l q G G 4.r.i.r.u.y.p.r.t.J D Z D 9 l l l l l l ( ) ( = 8 l l l l l l l l l s l s ",
"$.$.} $.$.$.l <.<.<.<.>.<.<.<.l :Xt t z 1.l <.<.< 0 q 0 n D v b G G N 0 0 < & & %  .l  . .X.l ( ( = 6 k l l l l >.<.<.<.<.<.l } ",
"$.$.$.$.<.$.<.$.<.>.<.<.m.<.<.l -Xt l <.1.1.<.<.0 D H K I e.I I t.e.4.K K A v v > <.<.<. . . .( ( l l <.<.<.>.<.<.<.<.} <.>.>.>.",
"<.<.<.<.} <.<.<.<.<.:.<.>.<.<.l ,Xe l >.<.1.o.m.N K G I t.s.p.p.y.p.a.s.t.D S J 1 <.<.<.<.>. .( -Xk <.<.<.<.7.<.$.>.>.>.:.>.-.-.",
"<.<.<.$.<.$.<.<.<.$.<.$.<.<.>.l |.l l l <.>.@.<.N A + % B p.I J K H e.y.B $ + D 1 ,.<.<.<.<. .|.|.k >.>.>.>.>.*.>.>.} } } :.} +.",
"<.<.<.$.<.:.$.$.<.$.<.$.$.$.<.}.|.l l l  .<.8.>.V I & b e.t.< & c $ q e.e.0 > G 1 2.<.<.<.<.l l ].k >.>.-.>.-.-.} O.} } } } } =.",
"<.<.<.:.$.$. . . .$.$.$.$.+.<.l |.l l <. . .8.1.D i.G 4.e.B $ $ 9 + & A r.K D &.0 ..>. .>.>.:.l ].f >.>.-.} -.} } } } { { +.+.{ ",
">. .$.$. . .$.$. .} $.$.$.$.$.l ( l l  . . .....D p.p.4.b % < c B 0 & % B e.p.p.0 ..' l ' >.>.a `.a >.+.+.+.{ O.{ s s { | { =.+.",
" . .'  .}  . .'  . .} } } } O.l / l l  .l ' l  .D p.t.b % . 9 D B G 9 . & A r.i.0 l h g g =.+.a '.a l s s { s a [ s | [ s | +.| ",
"g g g l g g g l O.} } g } } } a ^ a g  .' l ' a D p.t.b % . q D A G 9 . % b r.p.0 l s s a +.+.5 b.y a i { i a i i i a a i a a i ",
"g a s g g g s g { { { { { O.y y '.5 s s s s g y D p.t.b & . 9 D A D q . & b r.u.0 l a r i | t 3 c.e a r r r e i r r r r 8 r r r ",
"y y i a +.s s s s p [ { y y y t b.6 y s s y t d Z 5.D X     % c B 0 $     + v r.0 y a y e 6 6 e c.e ; e 6 6 r r | e r 6 8 6 6 6 ",
"4 y y t t r e i ] ] r r ] r y e b.3 3 t e t u t L 4.$ .     & N B v %     . % t.q 8 6 6 6 ; : R x.; 6 6 6 6 e 6 6 6 6 6 6 ; ; ; ",
": 3 : 4 3 3 5 , O O O : 3 3 ; c.c.c.: : 8 e 6 8 G I .       $ 0 B 9 +       + W 0 6 5 ; ; ; ; U Y ; ; ; 3 3 : : ; ; 4 : ; ; ; ; ",
",X*X+X+X@XOX.X#XOXOXOXOX.XOX.XOXOXOX+XOX+X+X+X+XI I X         + V X         + 5.0 .X.X.X.X.X.X@X@X+X@X.XOXOXOXOXOXOXOX@X@X+XOX.X"
};
