/* XPM */
static char *_f0fb475005046edc69fa0b943f0cc07EqHndhpNeg3WABzT[] = {
/* columns rows colors chars-per-pixel */
"64 64 190 2 ",
"   c #010100",
".  c #0A0704",
"X  c #0F0B06",
"o  c #130F09",
"O  c #120C07",
"+  c #161009",
"@  c #1B130B",
"#  c #21170D",
"$  c #23190E",
"%  c #281C0F",
"&  c #331F0F",
"*  c #231A10",
"=  c #281D10",
"-  c #2D1A1A",
";  c #341E1E",
":  c #2D2113",
">  c #312415",
",  c #392514",
"<  c #372A1A",
"1  c #3B2A19",
"2  c #3D2815",
"3  c #262524",
"4  c #302F2D",
"5  c #343331",
"6  c #3E3D3B",
"7  c #441D1D",
"8  c #481F1F",
"9  c #452C17",
"0  c #45201D",
"q  c #422E1A",
"w  c #48221F",
"e  c #46321D",
"r  c #4B341E",
"t  c #4B2120",
"y  c #542323",
"u  c #5C2424",
"i  c #5F2925",
"p  c #5E2828",
"a  c #4A3723",
"s  c #4E3922",
"d  c #4C3A2B",
"f  c #443425",
"g  c #553D23",
"h  c #583F25",
"j  c #453E3A",
"k  c #5D3431",
"l  c #622726",
"z  c #622A26",
"x  c #6D2926",
"c  c #642A29",
"v  c #6B2B2B",
"b  c #682723",
"n  c #742C25",
"m  c #7B2C24",
"M  c #732E2B",
"N  c #782F2B",
"B  c #6E312C",
"V  c #74322D",
"C  c #7C332D",
"Z  c #7E392F",
"A  c #693433",
"S  c #763231",
"D  c #793332",
"F  c #7C3A34",
"G  c #773B39",
"H  c #7B3B3B",
"J  c #5D4226",
"K  c #5E4529",
"L  c #54412F",
"P  c #4E423C",
"I  c #5D4934",
"U  c #61462A",
"Y  c #664B2D",
"T  c #694D2F",
"R  c #6E502F",
"E  c #7C423E",
"W  c #6E5232",
"Q  c #715534",
"!  c #755936",
"~  c #795935",
"^  c #7A5D3A",
"/  c #644C34",
"(  c #7F613D",
")  c #474643",
"_  c #4D4642",
"`  c #504E4C",
"'  c #53514E",
"]  c #655243",
"[  c #6C6966",
"{  c #6E6C69",
"}  c #716F6C",
"|  c #74736F",
" . c #802F27",
".. c #84342C",
"X. c #8A362C",
"o. c #83392F",
"O. c #8E392F",
"+. c #953C2D",
"@. c #993E2E",
"#. c #9C3826",
"$. c #833631",
"%. c #833C32",
"&. c #8A3B32",
"*. c #883F39",
"=. c #913C31",
"-. c #A23E2A",
";. c #99402F",
":. c #8D4139",
">. c #85413D",
",. c #914036",
"<. c #9C4332",
"1. c #984739",
"2. c #805F3A",
"3. c #A5432E",
"4. c #A8452F",
"5. c #A64A2E",
"6. c #A54631",
"7. c #A94731",
"8. c #A64933",
"9. c #AA4932",
"0. c #AB4932",
"q. c #A74E39",
"w. c #AB4F3A",
"e. c #AB5132",
"r. c #AC513C",
"t. c #A1503E",
"y. c #82633D",
"u. c #88673F",
"i. c #C3563F",
"p. c #C35E3F",
"a. c #8B4741",
"s. c #8F4941",
"d. c #854846",
"f. c #934B42",
"g. c #98544D",
"h. c #AD5643",
"j. c #AB5845",
"k. c #B25D49",
"l. c #886942",
"z. c #926E43",
"x. c #8F7247",
"c. c #927449",
"v. c #987549",
"b. c #9E7B4C",
"n. c #967447",
"m. c #A27E4F",
"M. c #BC6E5E",
"N. c #846B66",
"B. c #856E69",
"V. c #89746E",
"C. c #87726C",
"Z. c #8B7771",
"A. c #8E7C76",
"S. c #8F7F79",
"D. c #926666",
"F. c #B77263",
"G. c #C15740",
"H. c #A48252",
"J. c #A98B57",
"K. c #AA8C58",
"L. c #A88551",
"P. c #B08B57",
"I. c #B38D5A",
"U. c #B3955E",
"Y. c #BA965F",
"T. c #91827C",
"R. c #BD9B62",
"E. c #C5A669",
"W. c #C7A86B",
"Q. c #CAAA6B",
"!. c #D2B371",
"~. c #938680",
"^. c #958B85",
"/. c #978E88",
"(. c #99948D",
"). c #97908A",
"_. c #9B9790",
"`. c #9B9891",
"'. c #B89E91",
"]. c #B49286",
"[. c #B9A38F",
"{. c #B9A495",
"}. c #BAA799",
"|. c #BBAC9D",
" X c #BDB09F",
".X c #B5AFA2",
"XX c #BDB3A4",
"oX c #BEB7A9",
"OX c #BFB9AA",
"+X c #C0BBAD",
/* pixels */
"`.z p D D D D D D D D $.D $.D D D $.D $.D D >.H ] 2.+         $ Y @         * l.h S G D D D D D D D D D D D D D D $.$.*.*.$.+X_.",
"z p c 0.0.0.0.0.0.7.=.=.=.=.=.D D D D D D D >.F 2.2.o       . : Y % X       # ( h S H D D D D D D D D D D 0.$.$.-.*.&.$.D D c `.",
"p 0.0.0.0.0.0.0.0.=.0.0.=.6.9.6.9.9.9.9.0.0.h.8.Q ( o     . = a Y e $       # ( h 8.q.r.0.9.9.w.h.0.0.D q.0.9.6.0.-.*.D D D l +X",
"p 0.0.0.0.0.0.0.0.0.0.0.0.=.0.0.9.9.9.9.0.0.h.6.R ^ o   . * J W Y W s $ .   # l.h q.q.q.G.9.6.6.M.9.0.0.0.9.9.&.0.q.*.*.*.D l +X",
"p 0.7.9.7.7.=.7.0.7.9.9.=.0.=.=.=.=.9.9.7.6.q.8.R ^ + . % J W W T W / s # . @ l.g 0.j.r.0.0.8.8.h.w.$.9.9.9.6.0.0.q.*.&.*.D D oX",
"p 9.9.6.8.=.=.=.0.9.=.7.=.=.=.=.9.=.=.9.6.h.j.1.~ ] O @ a ! W Y Y Y Q ! f + @ ( h 1.q.q.8.7.7.6.7.7.&.9.6.&.0.6.-.9.-.0.$.D S +X",
"p 6.O.O.=.=.&.=.=.O.=.=.=.=.=.=.=.=.=.=.=.7.9.6.Q ( O % r T T Y T Y T Y a @ @ W r *.&.r.&.0.&.&.O.6.&.&.&.$.&.&.&.*.&.$.&.-.$.+X",
"u 6.O.O.3.O.O.O.O.O.O.O.O.O.D =.=.=.=.*.=.=.=.=.Q ^ + # e Y Y T T Y Y K e @ @ W r >.w.*.&.&.$.&.&.$.&.$.$.&.&.$.&.$.&.$.$.$.$.'.",
"y O.O.O.O.O.M O.O.S &.&.O.S M S M =.O.O.h.=.*.D W ( o O > K Y Y Y T Y J : O @ Q s E d.s.*.&.$.&.D S S $.$.$.$.$.$.$.$.$.$.$...^.",
"y O.X.X.X.O.M M M M M &.&.=.&.M $.S =.s.H l./ s Q ^ o   o q g U K K L < O   $ ( J < d a 8.$.$.S M M $.S $.$...$.....-. . .D D ~.",
"y M O...X.X.X.X.M M M M O.f.X.X.M M M G H 2.2.Y ^ ^ o   . + $ = % % @ +     * y.h , r 9 $.*.M M M M v v v v v v v D  .v N N y ~.",
"y v X.v v ..v v v M v M M &.M M M M S G E z.m.~ ^ l.> # $ - = > < < < < > : f ( g 2 h 9 D $.A v v v v v y v v c c l N c N c Z.~.",
"y v v v &...M M v M v A ..M v M y y y M G v.I.~ ^ z.U J R y.l.n.H.H.H.m.u.u.y.^ s q h r C v B c l l t y c 8 t l l l l l l b l ~.",
"y v v ..v v v v v v y y y y y y y y y a k v.I.^ ! ^ U ~ v.P.R.E.Q.Q.Q.Q.W.Y.L.y.h s R U A v c 8 l 8 8 8 p 8 8 u u u u u l l 8 /.",
"'.T.M v A y y y u y y y y y y ~.6 6 6 ) A b.R.( Q ~ Q 2.v.H.K.U.U.U.U.U.U.K.b.( U T u.T A A A v y ; ; y y y ; y v v v v l y y A.",
"`._._._.`.`.OXOXOXOXOX+XOXOXOX_._.`.`._._.L.Q.c.l.c.x.c.c.c.c.c.c.c.c.c.c.n.c.x.u.l.m.~ .X+X+X+XOXOXOXOX+X+X+XOXOXOX+X+X5 5 `.`.",
"D D D D D l 5 ) _.D D D D D $.D D D $.$.D P.!.E.E.E.W.W.W.W.W.W.W.E.W.W.W.W.W.W.E.E.E.x.H H $.$.q.0.0.0.D D D D D D D D 0.0.D D ",
"0.0.0.$.D D D 5 _.D D G.i.G.0.0.0.0.0.w.0.l.m.J.J.J.J.J.K.J.J.K.K.J.K.J.J.K.K.K.K.J.H.Q -.0.D 0.6.0.0.0.0.0.D 0.0.0.0.G.0.0.w.-.",
"0.0.0.w.w.D D D _.D 0.0.7.G.7.0.0.0.0.r.0.h ] u.( ( ( ( ( ( ( ( ( ( ^ ( ( ( y.( ( ( ^ h h.-.$.-.0.0.0.0.0.0.0.0.0.0.0.G.G.0.0.0.",
"0.0.0.-.-.-.D D _.D 0.i.G.7.0.0.G.G.0.k.&.g ~ 2.^ ^ ^ ~ ^ ^ ^ ! ^ ^ ^ ^ ^ ^ ~ ~ ~ ^ ! i G.h.0.0.0.=.0.0.0.0.0.0.0.0.0.0.0.0.0.0.",
"-.=.=.=.w.0.$.$.+XN 0.0.6.O.0.0.0.0.0.f.&.9 r r e a r r r r r r r r a r r r r r a r r , 0.h.G.0.0.0.0.=.=.0.9.9.-.0.0.0.0.0.0.0.",
"=.O.=.=.=.-.-.D +X4.7.0.&.O.7.7.0.&.&.s.&.*.&.j , , , , , , , , , , , , , , > , & _ q.0.-.w.0.0.0.0.7.7.0.=.9.9.9.0.0.0.-.0.0.0.",
"=.=.=.O.O.=.0.D +X4.7.7.6.7.7.7.5.&.:.g.*.f.:.*.d e r r r r r r r r r e a e e f f q.j.F.k.k.w.-.=.=.=.=.=.=.-.6.q.-.q.-.0.-.-.@.",
"O.=.O.O.O.O.-.D +X-.6.7...6...7.o.o.&.&.&.o.s.f.&.L J K K J U U K K K K J g q f G 8.0.=.f.=.=.O.=.O.=.O.=.=.-.6.O.=.=.-.-.=.=.=.",
"O.X.X.X.X.X.X.M +XM -.-.$.-.$.6...o...M M $.d...d.M ] U Y Y Y Y Y Y Y Y J r P { D -.O.=.O.O.X.X.X.O.X.X.X.X.X.X.O.O.X.X.X.X.M O.",
"X.v X.X...X.X.M +Xb ..-.-. ...-.C ..C v ....N M a.D.M I U U U Y U U U K a d A [ =.O.&.&.X.$.X.X.X.X.-.X.X.X.X.X...O.X.X.X.X.v X.",
"X. . .......c v +Xv N N N  .N N C N x x v N v b H v v v k r s s r r r r d E v ^.d.$. ... .v ............ .v  .......v  . ...l v ",
"l  . . . . .l l ~.m l l v l l l b l l N l l b n c c l l l l b l c A C F A c z (.D l l l l l l l l b l  .l l  .m  . . .l l l l l ",
"l m m m m  .u u 4 n l l l 7 7 7 l l l l u u l l l b l n n n u u u p p n u p p T.c l u u u l u u u u u u u u u u u u l M  .m u u ",
"y m m m n m u u 4 3 u 7 7 u 7 u y u 7 y u u u b y y y u y y y y y u y u u 7 7 T.l y y y y y y 7 y 7 7 u y y y u y u n y m u u y ",
"l  .X...l l l ].{ 3 3 8 - - u u 7 7 u u u l u u l u l u l l c v v v A c v y }.(.).S M S S l l u v t 7 u 8 u u l l u y u u u u y ",
"+X(._._.(._.| | | | _._.)._._.+X+X+XXXoX+XXXXXXX+X+X+X+X+X+X+X+X+XOX+X+XOXOXOX`._._.+X+X+X+X} +X+X+X+X+X+X+X+X+X+X+XOXOXOXoXoXoX",
"D $.$.$.D D D $.D D D D D D D D D D D D D <.D +X+Xi i D Z F C C D F F D F F D F Z V T C C F F S F Z S D D ) | `.`.D D D D D D D ",
"-.w.-.0.G.G.G.G.G.0.0.0.0.0.0.0.7.D D <.<.<.D D +Xk F D S D F R e.e.D D V F e.V e.e.p.p.e.e.e.e.e.e.e.F Z z ) `.D D 0.0.D 0.0.0.",
"w.0.0.0.-.w.0.0.-.w.0.0.0.0.9.w.0.0.0.D <.<.D D +XF F e.e.e.e.e.e.e.e.e.F e.e.e.p.e.e.p.p.e.e.e.e.5.e.e.e.e.i `.S 0.D 0.0.0.i.i.",
"0.0.0.0.0.0.0.0.0.0.0.0.0.0.9.9.0.D 0.D D <.<.S +XV e.%.e.e.e.5.e.e.e.e.e.e.e.e.e.e.e.p.e.p.e.e.:.>.o.>.e.e.k `.S D 0.0.0.0.i.i.",
"0.0.0.0.0.0.0.w.0.0.0.0.1.@.8.9.0.D 0.0.0.0.D D +XF e.e.e.e.e.5.e.e.e.p.e.e.e.e.e.e.p.e.e.p.e.e.5.e.o.:.Z e.F `.D 0.0.0.0.i.0.0.",
"0.@.0.0.0.w.0.@.0.0.-.-.@.8.@.9.0.0.0.0.0.0.<.D +XF e.>.e.e.o.:.e.e.e.e.e.e.e.e.e.5.e.e.e.e.e.e.e.:.>.o.V Z V `.S 0.0.0.i.0.0.<.",
"-.r.0.-.9.@.=.8.@.@.f.-.f.-.@.w.0.0.0.0.8.0.<.V P V e.e.o.>.o.e.e.e.5.e.e.5.E :.5.:.:.o.;.R 5.e.5.X.o.:.Z Z V `.D 7.0.0.i.4.4.7.",
"8.@.@.w.@.q.8.=.8.*.@.8.@.@.8.@.6.<.<.@.<.e.<.5 5 :.e.o.e.e.e.X.R :.:.e.e.Z :.Z Z :.Z :.o. .E Z R e.e.o.E V V `.M 4.4.4.4.4.;.;.",
"$.=.<.<.<.=.8.$.@.8.$.*.$.@.@.8.<.<.<.<.<.<.<.) | :.5.e.R X.R X.X.:.5.:.5.:.R o.:.:.V Z >.o.E :.Z o...R E V V _.M 7.7.-.D ..D @.",
"$.$.@.@.@.8.$.*.$.@.$.@.@.1.$.@.<.<.<.<.<.<.<.D { :.:.5.e.o.:...o.o.Z Z Z Z  .X.Z Z V Z V V ..Z Z 5...Z Z Z V OXM M 7.@.N 4.C -.",
"$.D $...@.$.$.$.$.$.$.$.*.$.@.*.$.$.<.<.<.<.<.D } E Z >.o.o.:.E o.X.Z E Z :.o.E E Z V E B Z Z C Z Z Z 5.Z C B oXM S -.D C N N N ",
"D $...D $.$.D $.S S D S D $.$.@.$.@.$.$.=.@.@.S [ Z Z Z o.Z C Z o. .R m C Z 5.Z n B Z n B B B B Z C C C C B B XXv -.-.M N v N N ",
"N D N N S D -...S M S M S $.D $.$.=.$.D $.D @.M [ B B C Z C 7.N C C C Z Z V 5.C x V Z B B V B Z V C C V V v y XX'.-.v m x c N M ",
"n n n n M n M N c y y v v c n v N N x N M M v y T.B B c c v x v B z B c z z z z z z z b 9 z z n z z z i z t y /.l #.l l l c n n ",
"x l x x x x v l 8 t 8 l l l l l l l l l l l 8 l Z.w t c c z x l i i i i z i z i z i i i w w z i i i i i 8 - Z./.l l u u 8 u b v ",
"y u b y y y y ` ` ' ' - - - 7 7 8 8 8 8 8 7 8 B.B.B.0 0 0 0 7 7 9 0 0 0 0 0 0 0 9 N.N.N.N.N.0 u u i r i - - B./.B.u u 7 7 u u y ",
"+X+X+X'.XX^.^.^.^.~.S.A.T.~.~./.^..X+X}.+X}.+XT.+X}.}.+XXX+X+X+X+X+X+X+X+XoX+X+X+X_.)././.^././.[  X} +XoX(.(._.(.(._.+X).+X+XXX",
"N M D D D D l p D 6.0.0.7.0.7.D +Xp u N D D D $.m S N N $.$.S S D S S $.S D D $.S D D D D D S | | | 5 z D D D D D D D D D D D N ",
"@.1.-.@.@.6.$.0.0.0.0.0.0.0.7.D +Xl l $.-.$.-.0.0.0.-.w.0.0.-.$.-.0.0.0.-.0.0.0.-.&.D $.$.X.D | | 5 z C D D D D 7.0.0.0.7.0.S @.",
"6.@.6.@.w.@.0.@.0.0.0.0.G.0.0.D +Xl S h.0.0.w.0.0.0.0.-.0.0.w.0.0.0.0.0.0.0.0.0.0.0.0.0.$.$.$.| | D D 0.0.0.7.0.0.0.7.@.0.7.7.7.",
"q.0.9.w.@.0.0.0.9.9.@.w.0.0.0.D +Xc D -.0.w.&.G.0.0.O.0.0.0.w.0.0.0.0.0.0.0.$.0.$.0.0.0.0.0.$.| OXD 0.0.0.7.i.7.<.7.7.7.7.7.-.7.",
"0.0.9.@.9.6.0.w.9.6.0.@.0.0.0.D _.D D D 0.-.&.-.w.&.w.-.0.0.-.w.0.0.0.0.0.*.$.$.$.w.0.0.0.0.$.`.`.S 7.0.0.7.7.<.7.7.@.@.@.7.@.7.",
"0.0.0.6.9.<.1.@.9.8.9.1.8.-.0._._.D D D &.-.$.w.&.&.$.$.$.$.&.$.$.$.&.$.$.-.$.0.$.0.0.0.7.0.S D (.S 7.7.7.7.4.4.@.@.@.+.@.@.@.-.",
"0.0.0.@.<.<.$.$.*.@.@.8.=.@.0.D _.D D w.&.&.$.-.-.&.w.$.$.$.$.$.$.$.$.$.*.0.$.$.$.$.0.X.7.7.7.S (.S 4.4.4.@.3.@.@.=.@.=.@.-.-.+.",
"7.$.<.@.$.$.@.<.$.=.@.6.@.<.<.D } D D $.$.$.$.$.$.$.$.$.$.$.$.$.$.$.$.$.$.$.-.-.7.$.$.$. .7.7.M /.M 4.-.-.-.+.+.+.N N #.-.+.-.-.",
"..$.$.$.@.$.D $.$.$.@.@.@.@.@.S } S $.$.$.$.$.$.$.S $.D $.D $.$.$.$.$.$. .D $.$. .D D N D -.-.n ~.M N N N O.N M O.N O.O.N #.-.-.",
"D ..C D C o.C ..@.@.@.N =.@.=.S [ S D $.N $.D N v M M M v -. .$.$.D v N M N D D S N N M N -.-.y A.c N M +.M n n n M M n n M n x ",
"C v C N C N C N =.=.+.+.+.=.M v T.y N N N N N v D v M v v v v v v v N v N N l N n M n n M -.l t Z.l b v n n l x n b b n l x x x ",
"v v N N -.N N N N N O.O.v n v c S.y v S M v v v v v l v b l b l l b l b l x x x l n x x l u l u V.l 8 u l u v x #.x v u p l u u ",
"t l l b b x c M #.X.b b X.l v l A.t t l l l l l l l l l 8 l l l l l u u l u l x x u u u u 7 7 ' N.7 u y y u b u u u y y y 7 7 7 ",
"t 8 t t w w 8 8 - - ; t t t 8 V.V.V.8 8 l l l l l l u 8 u u u u u u 7 - 7 7 u u y y y 7 7 7 7 ` ` 8 8 8 8 8 8 8 8 8 8 8 7 7 7 7 ",
" X}.+X.X}.{.{.{.{.{.{.{.'.{.{.'.}.}.}.}.|.}.|..X|.|.}.}.+X}..X}.}.'.+X}.}..X}..X.X'.'.'.'.'.'.}.}.}.}.'.'.}.}.'.}.'.}.}.}.}.}.'."
};
