/* XPM */
static char *_c11f3265f3e4261d4a5f0ee04484132ASHSzlcrZqVGRMXY[] = {
/* columns rows colors chars-per-pixel */
"64 64 256 2 ",
"   c #151A0B",
".  c #11110C",
"X  c #2B1913",
"o  c #192918",
"O  c #1B391C",
"+  c #172B0C",
"@  c #2A2717",
"#  c #372917",
"$  c #263519",
"%  c #3A3418",
"&  c #2C330D",
"*  c #381F25",
"=  c #1C3926",
"-  c #1F2920",
";  c #2A2C25",
":  c #3D2426",
">  c #392827",
",  c #273824",
"<  c #363824",
"1  c #393A37",
"2  c #233C36",
"3  c #47351B",
"4  c #533B1E",
"5  c #42271B",
"6  c #401F28",
"7  c #591A2B",
"8  c #472625",
"9  c #582726",
"0  c #473824",
"q  c #453A3B",
"w  c #543A2E",
"e  c #703228",
"r  c #441D1E",
"t  c #1A471A",
"y  c #0C5113",
"u  c #384715",
"i  c #23581B",
"p  c #2F4E14",
"a  c #18641D",
"s  c #2A6E1C",
"d  c #1D4823",
"f  c #1E5726",
"g  c #254722",
"h  c #314321",
"j  c #354A25",
"k  c #225325",
"l  c #255A27",
"z  c #374538",
"x  c #2B5637",
"c  c #34573C",
"v  c #2E4F2E",
"b  c #1C7724",
"n  c #1D6625",
"m  c #236828",
"M  c #267729",
"N  c #386E28",
"B  c #465817",
"V  c #574B1D",
"C  c #5C7719",
"Z  c #4F691A",
"A  c #687519",
"S  c #5A4526",
"D  c #44443C",
"F  c #514F35",
"G  c #654925",
"H  c #6C512A",
"J  c #78562A",
"K  c #795A36",
"L  c #6A4E33",
"P  c #52702E",
"I  c #637636",
"U  c #736A30",
"Y  c #6B511F",
"T  c #563843",
"R  c #335845",
"E  c #2D5252",
"W  c #316854",
"Q  c #365C60",
"!  c #2A6968",
"~  c #2C7273",
"^  c #347570",
"/  c #1F4941",
"(  c #4A4947",
")  c #52534D",
"_  c #575755",
"`  c #4B534E",
"'  c #6A4A44",
"]  c #755147",
"[  c #516E53",
"{  c #6B6E4F",
"}  c #4A6D69",
"|  c #7B7978",
" . c #6D6E69",
".. c #425F61",
"X. c #91222F",
"o. c #E13636",
"O. c #91711B",
"+. c #865B2E",
"@. c #875C32",
"#. c #995B30",
"$. c #8A6536",
"%. c #926432",
"&. c #966A34",
"*. c #9A6D36",
"=. c #996837",
"-. c #9C7239",
";. c #8F662B",
":. c #A46E36",
">. c #A36E3A",
",. c #A47137",
"<. c #A4733A",
"1. c #AA763A",
"2. c #AC793E",
"3. c #A77939",
"4. c #B3732B",
"5. c #A15A27",
"6. c #C57529",
"7. c #8C5945",
"8. c #9A6643",
"9. c #987544",
"0. c #876D4B",
"q. c #A97944",
"w. c #AA7249",
"e. c #8A7769",
"r. c #DD635C",
"t. c #33961E",
"y. c #1D9026",
"u. c #288529",
"i. c #378B26",
"p. c #1DA728",
"a. c #34B026",
"s. c #209A1E",
"d. c #6F8D1D",
"f. c #459526",
"g. c #558F31",
"h. c #779828",
"j. c #709031",
"k. c #52AC32",
"l. c #6FB032",
"z. c #34C522",
"x. c #4FCD2C",
"c. c #6FD33A",
"v. c #70E13A",
"b. c #37867D",
"n. c #7B9A45",
"m. c #7C9B59",
"M. c #6F8C4E",
"N. c #4A887A",
"B. c #7A9664",
"V. c #768972",
"C. c #73AF47",
"Z. c #78C642",
"A. c #AC9216",
"S. c #B18E17",
"D. c #B58934",
"F. c #84A729",
"G. c #88AA39",
"H. c #92B831",
"J. c #A19E14",
"K. c #D0AE16",
"L. c #CF9936",
"P. c #CE9939",
"I. c #C9963C",
"U. c #D19A3C",
"Y. c #D38822",
"T. c #D0AB39",
"R. c #E5AB21",
"E. c #91CB32",
"W. c #DDC516",
"Q. c #E9D012",
"!. c #FCE70E",
"~. c #F5E434",
"^. c #909050",
"/. c #AD8244",
"(. c #A9834B",
"). c #B18443",
"_. c #BD8D4C",
"`. c #B78549",
"'. c #BE914B",
"]. c #AB8854",
"[. c #B78C53",
"{. c #BB9659",
"}. c #AE9359",
"|. c #85A648",
" X c #86A554",
".X c #8DB34C",
"XX c #AAA65B",
"oX c #B2B15B",
"OX c #8E8C6B",
"+X c #AF956D",
"@X c #B2AD6B",
"#X c #95B56B",
"$X c #C38E4C",
"%X c #C68C4B",
"&X c #C3914C",
"*X c #C49949",
"=X c #C59A5B",
"-X c #C99B5B",
";X c #C39953",
":X c #D69750",
">X c #CCA245",
",X c #D0A443",
"<X c #D3A44A",
"1X c #D6AC5C",
"2X c #D8AE5C",
"3X c #D3A35E",
"4X c #D4AC5A",
"5X c #C99C63",
"6X c #D19F63",
"7X c #CCA366",
"8X c #D3A364",
"9X c #DCAB62",
"0X c #D5A567",
"qX c #C1BC64",
"wX c #D7B171",
"eX c #E2AE63",
"rX c #E5B265",
"tX c #E7B96D",
"yX c #E7B971",
"uX c #8FD047",
"iX c #A5D854",
"pX c #ACD170",
"aX c #95D55A",
"sX c #CDC674",
"dX c #F1E75C",
"fX c #377F82",
"gX c #368D83",
"hX c #2AB094",
"jX c #44978B",
"kX c #489D91",
"lX c #4CA794",
"zX c #51AD97",
"xX c #50B198",
"cX c #49BDA2",
"vX c #36CDAC",
"bX c #28E2BA",
"nX c #18D2AD",
"mX c #45CAAA",
"MX c #19F2C4",
"NX c #949491",
"BX c #B6B288",
"VX c #A8A6A5",
"CX c #B5B6B3",
"ZX c #A0A69F",
"AX c #D7A788",
"SX c #D9D688",
"DX c #D5D290",
"FX c #E3DB95",
"GX c #EDE78D",
"HX c #EBE8A7",
"JX c #D9D8A3",
"KX c #CFCDCB",
"LX c #E8DED8",
"PX c #EBE9E5",
"IX c #F5F0EC",
"UX c #E9E6D6",
/* pixels */
">.,.-X-X>X XE.H.H.H.*XT.{.=XyXyX*.&.).).9X9X0X0X<.>.<XU.T.>XtXtX2X2X@XV.3X1X1X1X2X2X2X1X2X2X2X2X2X2XrXtXrXrXrXrX:.<.,X,XL.L.3X,.",
",.-X=XU.,X7X XB @ F j.d.j.B.B.-.*./.).9X9X0X0X,.,.T.,X,X,XtXtX9X1X7Xn.d.n.7X1X1X2X2X2X2X2X2X2X2X2XrXrXrXrXrXrX:.:.,XU.L.L.rX1.,.",
"2X9X2X9X0X0X-.n.P #Xe._ Z C C |.D./.,XU.&X%X<.,.,X,X,X,X,X,X*X*Xm.n.I  .I  X=X{.[.V.B.[.).`.).).).).3.2.1.2.:.<.).).1.2.%X1.,.8X",
"9X9X9X0X7X-.3.=X|.u n.aXpXM.C B I *XU.%X%X<.<.,X,X,X,XT.U.>XB..XC P VXIXVXP B.].}.B.H.B.`.(.`.).).2.2.2.2.,.,.).).1.2.%X1.1.2X2X",
"8X0X8X7X9.q.;X-X=XG.u f.k.pXuXl.f.d.).`.>.>.).).q./.[.[.}.H.h.   .KXPXLXIXCXZ  X9.B.d.d.V.w./.(././.`.).%.%.D.q.q.`.2.1.>.9X9X0X",
"8X6X7X.XE.d.d.d.d.F.Z s i.f.pXiXE.s d.<.:.)././.(._.B.m.j.o ; | NXCXPXLXIXLXVXI n.|.C @ d.m.(././.).q.%.%.).).).).2.2.,.eXeX0X0X",
"-X5X<.q.j.& . O { I A + i.f.f.pXiXE.Z j.-.*.w.q. X|.A C S q 0 1 q ) NXZXUXVXCX .Z C u j.p |.*.=.$.+.%.%.D.).$X$X1.1.2.<X,X<X<X-X",
"6X1.<.'.[.|.d.p C.#X@Xf.t M f.k.pXiXl.% E.H.E.h.& u 3.D.q.7.7.' ' #.:.K _ 1 z x y.y.y i.l.Z m.@.@.%.%.D.q.&X'.q.1.:.,X<X<X<X-X6X",
"<.<.$X$XD./.I.h.p g.k.DXpXf.t i. XaXj.& Z % % S $X$Xw.w.w.w.{.FX~.K.6.6.L g M u.u.u.y.a.c.B |.[.:.:.q.D.$X%XD.2.*.,X,XU.U.-X-X<.",
"<.&X&Xq.q.I.'.-.F.p f.N M.#X{ ) g V % 3 *.:X:X{.8.8.[.'.yXGXdXK.A.F q @.0 M k.c.M k n p.s.Z  X>.*.).).'.'.2.q.2.<X,XU.U.-X3X1.<.",
"$X&X2.2.>X>X3.n.B & g NXNXNXLXe.8.q.%Xw.w.8.L AXAX,XdX~.K.O.U } gXvXjX} v M N F U o k u.& G.-.<._.$X$X&X).1.1.-X-XL.U.-X-X:.,.&X",
"%Xq.q.>X>X-.n.F  .| NXIXLXPX| ] w.w.w.}.SX] u ~.~.Q.O.J ) jX} jXbXvXnXlXx j O.%.w.$.o m o G.-._._.$X_.).1.1.-X-XU.L.-X-X:.:.&X%X",
"_.&X6X7X&. Xp ZXVXKXKXIXKX| ( 7.A.dXGX!.W.B - w ( ( zXxXjXzXlXgXfXcXnXgX~ hXO.dXw.[.$ d + G.[._._.$X_.1.2.&X%XL.L.&X%X*.*.%X*X$X",
"_.8X7X*.9.j.F _ ZXCXKXIX .d O a Z J.A.O.$ u.2 lXkXN.gXb.} Q kXkXjXhXhXcXbXcX{ W.7Xw.-.< + G.[.&X$X_.1.1.&X&XU.U.&X&X&.*.$X$X_.$X",
"&.&.+.$.OXC  ._ | CXCX| O O t b n b $ ; l p.2 lXfX( %.+X+X+Xq E gXhXkXbXmXjX} U dX7Xw.8.# G.].[._.2.1.$X&XL.L.$X$X*.&.:.,.,.,.&.",
"&.+.;.V.j.D  .) ) ZXVX| G 4.4.O d M f d y.a nXlX~ ( Y.R.~.!.FXOX2 2 2 d ^ lXxX..Q.FX8.8.2.B  X].1.1.&X$XL.L.$X$X&.*.1.,.,.,.&.&.",
"wXwXyX XI ) _ _ ) NXVX; ' 1.R.U R O m m y.x bXzX~ T Y.A.7 ' o.4.W.A B b b N.lXxXQ W.yXw.`.V j.q.<.I.L.I.I.).(.-.*.tXyXtXyXrXtXyX",
"wXwXwXF.< | ) ( D ( CX; ' 3.!.J.h g.m u.n gXcXxXgXq Y.A.X.JXe.7.#.S.K.B b a E ^ vX{ T.sXw.q.U n.*XI.U.D.(.).9.*.tXtXyXyXtXtXyXyX",
"{.{. Xj _ _ 1 > : > ) ; ' 7.D.K.N x.Z.n W lXjXzX~ q Y.A.X.IXIXLXAXe.e A.B y.a * nXzX) T.sXw.w.V G.'.%X)./.<.=.5X-X-X-X8X0X&X$X=X",
"-X5XG.< } ( > 6 6 * 6 : q ' >.W.J.t.x.u.x jXzX^ ~ q Y.S.X.o.IXLXLXAXBXw.% k m ; nX/ Q S.~.w.8.9.u F.G.F.<.8.{.5X;X-X8X8X&X$X=X=X",
"0X|.p M.[ 1 > 8 > < > 6 * w 7.1.R.J t.z.d b.xXb.~ q Y.S.X.o.NXg F $ 0.AX' - m a t 2 jX..D.XXF B k + + y h.{.=X5X8X'.'.&X'.eX0X9X",
"0X Xu [ ` ; < : > : h 8 * 8 ' 7.4.Y.j i.t hXvXzX~ q Y.S.X.X.m x.l.e.r.o.e o l M c.v zXjX1 g.c.v.a.p.p.p.a j..X5X[.$X'.'.0X3X9X3X",
"3. XB ` R ; h : 8 > < * 6 * F 7.7.6.$ l i ~ MXzX~ q Y.S.* i y.l e AXo.o.e o u.x.aXd kX^ 2 N i.y.M l l n b a u G.-.1.1.,.,.,.*.1.",
"2.3.|.j c ; h < < > < : 8 6 > ' ' ] , f a W nXN.! 1 Y.A.$ m u.q X.7.6Xo.4 t u.v.N lXcXvX! d M b l d , = t a g.u |.1.-.,.-.<.1.1.",
"9X0X9Xn.B u $ g h $ < < < : 6 8 ' w , l y.n d d d d ;.A m k , 9 E k i 9 3 k p.s lXb.bXhXg u.y.f d < ' ] S i c.& G.9X9X9X9X9X9X9X",
"9X9X9X9X|.h.d.@ h > > 8 8 > : : 0 , l m M a.a.k.f.u.m m u.m m m a.x.i O k M y., N.E W x m M b E / V <.8.q.4 j @ G.9X9X9XrX9XeX9X",
"/./././.'.l P d.  h h 8 * ; : * = f M M l d x.Z., O l l l l m u.u.u.m M M s.A J jXjXx o O b b W ! A Q.2.8.q.L . G.q.2.).)./.`.(.",
"D././.[.[.f f I h.$ h < < $ g $ g M M l A.dXc 2 ~ E = - $ 3 d k k k M M s.s O.W cXlX~ ~ = n z.M ~ } S.!.2.8.w KXI h.n.B./.)././.",
"_._._._.>.x g [.P d.& h h O uXN l M l D 3.Q.HXq b.~ ~ Q L #.8 Y Y h d l M p.t } MXvX^ ~ / d t.uXx jX` O.!.4.w CXKX .I C m.(.)._.",
"_._._.>.<._.k }.l l.& p h $ x.a.M f ; ' K W.dXOX} jXfX~ Q E ( e H 8 H d m k.Z.g.vXmXkX~ ! d M x.C.R ;.A.!.O. .KXLXPXCXNXZ B._._.",
"%.%.+.@.[.`.k ].k [ F.+ h $ a.M M = > 8 ' 8.!.~.e.^ zXxXlXfX~ ! Q Q 9 ; g M v.g.^ b.jXb.! > t l v - J.K.D.e.KXPXLXPXIXZXu  X>.%.",
"%.@.+.$X$X[._.{.v *.[ h.$ O k m f > * * w 7.Q.~.@X..mXbXbXvXkXfXgX^ ~ ~ / d u.p.d N.{ Y ;.Y.;.V < < 0 F D KXPXKXKXNX_ | &  X$.%.",
"+.+.).`.%X$X{.;X-.9.x M.C o k m l * 6 * > ' 8.W.dX+XgXxXlXhXlXjXmXcXfXgX! - k y.t O.K.!.!.K.6.4.8.8.] w 1 CXCX_ _ _ ) ) P >X<X@.",
"@.`.).%X%X=X-X,.-.}.x B.C o k m , * < 8 < > ' 7.Q.~.BX..kXg W xXmXjXzXgX! = k b O !.K.D.2.>.7.] ] 8 8 8 ; ) ) ) _ q - d.<X*X+.@.",
"D.).$X%X0X7X1.1.&X'.'.B.C o k m o : > < > : 6 ' $.R.~.@X..= g W lXgXxXgX! = k u., 1.8.8.L L w : 8 9 8 * , ` ( ( ( ; A [.$X=.$.q.",
"q.%X$X7X8X2.1.$X$XL.I.B.C + k m t ; < 6 6 : * 1 _ K K.~.q.; k m $ E E ! d f m d ] 7.w w 8 * 7 9 9 8 8 w F F F JXKXOXh.'.%.=.).).",
"U.P.>XU.1.1.%X$XL.L.{.m.A O k l M i % 8 6 6 8 ) VXkXe K.R.5.@ t M f d d d m m O < 0 8 9 9 9 9 6 8 0.0.XXSXsXsXHXBX+ h.-.-.q.).P.",
"I.U.U.>.1.%X$XL.L.{.{.{ j.u d M a.i * * 6 6 * > VXLXZXe.G w 4 H = b u.a.k t $ : 9 9 9 9 r # L ^.^.sXsXqXSXHXGXHX@X) ) n.(.D.I.P.",
"-X-X1.1.L.L.%X%XI.I.@.@. XZ O M y.$ 8 : < h 6 6 ' KXKXKXPXKXq q O x.v.uXS 9 9 9 9 8 0 0 XXqXqXsXsXDXHXHXsXsXsXUXVX{ LX) G.I.%X;X",
";X1.1.P.L.$X%XP.P.@.@.-.:..X+ k m = < : > * % 6 6 jXKXPXPXKXKX_ s g.I # 9 8 8 S U 0.@XqXqXoX X#XpXDXFXSXHXHXGXFXDX{ ZXKX{ j.-X{.",
">.1.L.L.&X&XL.L.*.=.tXtXwXB.C = k O < < > : > > ; | ZXLXPXLXjXw 1 1 @ : 5 U ^.XXsXsXFX@Xj.B M.M.P sXHXSXSXSXFXe. . .| NX .C  Xq.",
":.L.L.%X%XL.L.*.=.tXtXtXyXtXB.A     + h h > 8 > ; | ZXCXNX .) ) ) 1 F XXXXsXsXDXJX@XI k s i.l.pX.XM.SXJXDXD ( | | _ [ [ c C B.-.",
").).%X%X`.).:.,.&X&X$X$X&X'._.B.F.G.F.  j > : h ; | VXNX_ ( ( F F XXsXsXSXJXHXSXXX^.P N N s i.l.SXk.{ BX@ ( | _ ) 1 R u B m.9./.",
").%X%X).D.,.,.%X&X%X&X'.'.$X_.{.P {.j.u $ h < , ( NXCX) ) ; ' OXSXFXHXGXFXoXoX@XsXSXDXsXoXI P f.pXC.o X 9 1 ( 1 j B B h.j.=./.).",
"&X%Xq.2.-.*.-X-X-X-X;X-X;X{.>X{.R ;Xg.h.o h h <  .CX| ) 1 ^.sXGXFXSXXXM.N g M.JXHXSXDXFXoXD @ t l.#X. . . . X d.d.n.j.N c ^.D.'.",
"_.2.2.*.=.-X-X;X3X-X-X;X{.>X{.{.{.*Xc g.Z $ h ,  .CX_ ( z XXsXXX^.m i P g.f.d.^.@XDX0.# # r r 5 B OXV G.F.l.F.}.P }.$.x c (.'.$X",
"*.*.%.+.@.+.+.+.*.#.:.:.3.3.<.<.1.1.l x G.& h z NXZX_ z 0.oXXXB y i.f..XSXiXE.i.  . * r r # & u F.+ C  X].'.'.[.R K @.x c 8.>.*.",
"&.%.%.@.+.+.@.#.5.:.:.1.3.1.1.,.1.3.x c M.d.  z VXV.) 1 ^.qX|.{ N i f.t.k.pXiXc.# X X V C d. X X8.n.j.].'.P.&X{.R $.-.x -.<.*.*.",
"rXeXeXeX0X0X0X0X6X6X<X<X<X<X*X<X<X<Xx x [ H.. z ZXV...z 0.qXqX^.< o s t.f.E.pXE.  d.d.n.m._._.<.w._._.&X[.=X-X=.=.0XeXR 8X9XrXeX",
"eXeXeX0X0X0X0X6X6X<X<X:X<X*X<X<X<X<X*XR W P h.; ZXV.) D { F F { |  .o i i.g.pXiX  H.(.(.).`.,.<._._.&X&X-X-X*.*.rX9XeXR 9XeXrXeX",
"$X%X$X$X$X$X%X$X&X$X$X%X_.&X&X$X_./.(.x R %.F.o V.[ ( ( ( q  .| _ z . + p N  X.X  h.9.9.q.+.$.).`.=X;X8X0X>.>.-X-X$X`.).).2.2.%X",
"%X$X%X$X$X%X$X$X$X$X$X[.&X$X$X$X/./.q.x R $.C u (  .R ( ( _ R R , o Z I B O P  X  d.$.&.H J 9.q.[.&X0X8X,.:.;X-X_._.).).2.q.%X$X",
"&X&X/.).D.q./.`.D./.2.)./.).).)./.2.-.K z 0.[ Z , _ z z z v +   u B F G Z   i j.  P K S V +.%.(.].5X6X:.:.).).).).2.2.2.2.).`.&X",
"_./.)././.`./.D././.).).).`.).).q.1.K J d +.S p & - z $   . B B j w 4 0 Y u   c   B 3 3 G Y K $.w.].%.=.D.q.).).2.1.2.2.).).$X'.",
"1.1.,.,.1.1.-.,.@.@.;.*.*.,.<.:.#.Y G 0.] G S o h @     $ u 0 0 3 # # 3 % &   . & # X # 5 3 3 S G H J @.%.%.%.>.,.,.:.1.1.1.,.3.",
"q.>.-.1.1.-.-.J @.@.*.,.:.,.:.*.J H q.0.S S 0   # $ $ $ $ # # > # # % % # # + . &   X X @ # 5 3 0 4 J +.@.=.<.>.,.1.1.1.:.1.1.1.",
"rXrXrXrXrXrX).%.+.2X2X2X2XyXyX+.H (.0.J S S 4 # X # # % % # % X X % & # # # X + o # # # < 0 0 S K &.(.-X6XeXeXrXtXyXtXtXtXrXrXrX",
"rXrXrXrXrX3X*.@.2X2X2X2XyXyX+.+.}.(.%.J K S 3 # % # % 5 % % X @ # % # # # X X X @ # > # # 3 w G K 9.(.-X3X9XtXtXyXyXtXtXrXtXrXrX",
"*X;X;X;X[.=.=.$X&X).D.,XU.%.@.5X{.&.U ;.U 4 4 4 3 3 3 0 3 # X 0 3 # # # # & X 3 % # # # # 3 4 4 S U <.D.I.6X6X2X9XeXeX1X1X8X3X;X",
";X;X&X-X:.#._.&X).).,X>X%.%.6X5X9.&.D.&.G 4 4 4 V V S 4 # # S S 3 3 3 3 # # 4 3 3 3 3 3 0 4 4 S K 9.2.D.-X8X2X4XeXeX2X2X3X8X*X;X",
"$X%X`.>.@._.'./.).T.U.%.&.,X<X/.3.3X{.J H J H K J L L # 3 H H 4 4 4 4 3 3 V V Y V 3 4 4 S G Y J ;.(.[.=X6X1X4XeXeX-X7XP.P.;X*X$X",
"$X%X2.@._._.).).,X,X=.=.,X<X)./.wX1X;.J &.-.'.(.9.$.4 4 0.$.H G H G G G +.J O.Y G G G H +.*.O.,.].{.=X5X1X2XeX9X-X3XP.P.;X&X%X$X",
"&.=.#.%X&X;X*X,X,X*.*.,X,X=X-XtXtX&.&.-.-.9X9X5X-X+.J %.;.+.+.J J H Y +.J +.J +.+.%.;.;.&.*.,.1.1.1.2.,.<.*.*.#.=.#.#.*.-.*.=.&.",
"%.#.&X&X*X;X>X,X*.*.,X,X-X-XtXtX-.-./.-.-X9X8X8X@.@.>.>.*.*.&.*.+.#.&.&.*.&.*.*.1.<.1.1.1.1.1.1.1.1.1.<.,.*.#.:.#.#.*.*.&.&.=.&."
};
