/* XPM */
static char *da5864cc65c04e3abfd9a01426fd73adr2aFyqNRI8OWXAdT[] = {
/* columns rows colors chars-per-pixel */
"64 64 210 2 ",
"   c None",
".  c #3D3D3C",
"X  c #333332",
"o  c #352E25",
"O  c #49231D",
"+  c #452924",
"@  c #4D2C2A",
"#  c #482723",
"$  c #4A342D",
"%  c #47382C",
"&  c #563C37",
"*  c #553126",
"=  c #41413F",
"-  c #4D4038",
";  c #534236",
":  c #5A4A3B",
">  c #5C513D",
",  c #62523E",
"<  c #444443",
"1  c #494946",
"2  c #4C4C4B",
"3  c #5B4C43",
"4  c #52514E",
"5  c #5E5548",
"6  c #5B594F",
"7  c #5B5145",
"8  c #545452",
"9  c #5A5955",
"0  c #5C5C5A",
"q  c #654E43",
"w  c #635C4E",
"e  c #6B5C4A",
"r  c #685646",
"t  c #715E4B",
"y  c #715F47",
"u  c #625E54",
"i  c #6D614B",
"p  c #796249",
"a  c #776A4E",
"s  c #75654B",
"d  c #676256",
"f  c #6B6355",
"g  c #63625E",
"h  c #6D695A",
"j  c #68675F",
"k  c #746153",
"l  c #7B6C54",
"z  c #736C5B",
"x  c #796E5C",
"c  c #746855",
"v  c #7C725C",
"b  c #78705A",
"n  c #656563",
"m  c #686761",
"M  c #6C6A64",
"N  c #6D6D6A",
"B  c #766C63",
"V  c #6F706F",
"C  c #757163",
"Z  c #7C7564",
"A  c #7E7866",
"S  c #74736D",
"D  c #79756B",
"F  c #7C7A6C",
"G  c #747472",
"H  c #7C7B73",
"J  c #7D7D7B",
"K  c #787874",
"L  c #836E55",
"P  c #816F5C",
"I  c #84755C",
"U  c #88775B",
"Y  c #83785E",
"T  c #8C7C5C",
"R  c #857355",
"E  c #927C5C",
"W  c #9A7F5E",
"Q  c #847562",
"!  c #837A64",
"~  c #897D64",
"^  c #847E6C",
"/  c #887C6C",
"(  c #847668",
")  c #947F63",
"_  c #817F73",
"`  c #98835E",
"'  c #8F8165",
"]  c #86816E",
"[  c #8C836B",
"{  c #948263",
"}  c #9C8462",
"|  c #9B8966",
" . c #93856B",
".. c #9C8C6D",
"X. c #97886A",
"o. c #9D916E",
"O. c #868374",
"+. c #8C8674",
"@. c #8E8974",
"#. c #83827C",
"$. c #89867A",
"%. c #8E8B7B",
"&. c #928774",
"*. c #948C74",
"=. c #9A8D73",
"-. c #928D7B",
";. c #9A8E78",
":. c #9B9174",
">. c #96907D",
",. c #9C937B",
"<. c #9F987E",
"1. c #A28662",
"2. c #A48A64",
"3. c #A28E6D",
"4. c #AB9167",
"5. c #A4926C",
"6. c #AB926A",
"7. c #AD986E",
"8. c #B79F6F",
"9. c #A08D71",
"0. c #A39272",
"q. c #AA9474",
"w. c #AC9A74",
"e. c #A2957A",
"r. c #AA9779",
"t. c #A4997C",
"y. c #AB9C7B",
"u. c #B29671",
"i. c #B39D74",
"p. c #B29E7C",
"a. c #ADA17D",
"s. c #B5A37D",
"d. c #BAA47C",
"f. c #BCA97E",
"g. c #BAA575",
"h. c #C1AB7B",
"j. c #8B8A83",
"k. c #838381",
"l. c #938E84",
"z. c #969283",
"x. c #9B9583",
"c. c #9E9984",
"v. c #94948C",
"b. c #9D998B",
"n. c #9B9B95",
"m. c #A39B84",
"M. c #AA9E82",
"N. c #A29D8A",
"B. c #A49886",
"V. c #A29F93",
"C. c #ADA284",
"Z. c #A5A08D",
"A. c #ABA38B",
"S. c #B3A484",
"D. c #B9A684",
"F. c #B6A985",
"G. c #BBAA85",
"H. c #B3A68A",
"J. c #B5AA8B",
"K. c #BBAC8C",
"L. c #BFB28D",
"P. c #A6A293",
"I. c #ABA694",
"U. c #AEA996",
"Y. c #AAA799",
"T. c #ADAA9C",
"R. c #A2A39D",
"E. c #B1A791",
"W. c #B4AB93",
"Q. c #BAAE92",
"!. c #B3AD9A",
"~. c #BDB295",
"^. c #BCB39B",
"/. c #B5B3A3",
"(. c #BBB4A3",
"). c #BDB9A9",
"_. c #B8B6A9",
"`. c #C3AD83",
"'. c #C2AD88",
"]. c #C3B185",
"[. c #C2B28D",
"{. c #C9B78B",
"}. c #D1BB8F",
"|. c #C5AF90",
" X c #C3B493",
".X c #C3B79A",
"XX c #C5B99B",
"oX c #CBBC9C",
"OX c #C8BA96",
"+X c #C4BCA3",
"@X c #CABDA1",
"#X c #C2BDAD",
"$X c #CCC19E",
"%X c #D1C19C",
"&X c #D7C397",
"*X c #CDC1A3",
"=X c #CDC4AB",
"-X c #D2C4A5",
";X c #D3C7A8",
":X c #D5C9AC",
">X c #DCCFAD",
",X c #D7C8A1",
"<X c #DFD0A9",
"1X c #C7C3B3",
"2X c #D3CDB7",
"3X c #DDD3B4",
"4X c #E3D8B8",
"5X c #E3D2AA",
"6X c #D5D0C1",
"7X c #E7DEC1",
/* pixels */
"                                                                                                                                ",
"                                                                                                                                ",
"                                                                                                                                ",
"                                                                                                                                ",
"                                                                                                                                ",
"                                                      i ..{ v :                                                                 ",
"                                                    t.w.w.y.o.I                                                                 ",
"                                          ~ =.r.S. X[.G.J.F.S.H.l.                                                              ",
"              6 f f c z ! ` 2.8.G.'.[.K.'.K.`.D.H.Q.|.|.oXoX@X:X6XS                                                             ",
"  ..[ ! 5 $ % $ $ + o & w l R 4.i.S.S.y.w.w.r.M.D.D.S.|.|.@X@X@X:X.X                                                            ",
"  e I Z ; + + ; 5 x x A ! A Y | 2.3.q.q.q.p.S.p.'.H./ B.D.|.@X;X>X4XW.                                                          ",
"    i +.B t > z F z.-.-.@.[ ] ' [ r.p.p.S.S.H.D.'.M./ B.oXoX@X:X4X7X4X+.                                                        ",
"    ..A.>.O.j j F _ >.-.x.>.>.@.<.M.S.F.M.S.H.D.H.|.@X.X.X.XQ.b.v.Y.6X7XA                                                       ",
"    5 W.b.$.S F z.$.b.z.%.>.,.-.;.m.M.p.p.M.e.n g N _ _ K G N V G K k.n.=X-.                                                    ",
"      A.!.P.v.j.v.b.z.z.x.x.,.N.-.B.>.S.D.p._ 8 0 0 g 0 g G _ G K J k.v.R.2X!.                                                  ",
"      d K.%.z.z.b.Y.P.U.b.z.@.@.-.&.+.;.S.r.9.n 8 n n V N V J G K j.n.V./.).3X:X                                                ",
"        0.0.@.>.c.z.%.%.%.>.*.@.o.<.C.c.A.F.F.] 8 0 n V n V K j.P.~.-X:X=X3X4X3X;X                                              ",
"        v 5.! ] O.O.-.-.>.-.o.<.<.c.>.c.c.L.F.C.M n J l.x.V.H.D.F.H.K.H.Q.oXOXoX-X^.                                            ",
"          5.! [ @.[ c.<.m.<.>.,.m.P.Z.m.c.C.J.J.B.N.V.H.H.J.M.M.S.y.S.D.Q. X X|. XoXK.                                          ",
"          g.o.<.<.<.Z.<.>.c.<.Z.U.U.U.N.v.<.C.' k e.r.e.r.M.Q.Q.S.D.S.S.C.A.H.W.{. X%X~.                                        ",
"          | 0.:.*.[ [ :.<.<.<.<.b.b.Z.z.>.O. .i : L 9.B.D.K.Q..XW.J.J.Q.Q.|. X.XXXJ.K.oXoX                                      ",
"          |  .[ @.[ ! *.>.%.O.@.>.%.O._ A ] ..T L r q P m.x.!.+X@XXXXXXXXXK.XX.XW.J.J.Q.oXXX                                    ",
"          T U ' [ [ [ ,.b.@.A A z C +.z.x.c.-...: r k k B.K.|.Q.^. XOX.X-X.XW.J.J.E.Q.H.D. XXX                                  ",
"          ' { Y Y ^ A ^ ^ Z A A z C ] O.@.:.@.*.) y L ..&.M.H.H.H.M.J..X^..X.XXX|.^..X|.@X@X-X-X                                ",
"          a Y Y ' @.>.@.>.:.[ C A C ] O.^ +.:.X.} 1.{ ..=.&.r.B.t.H.H.W.XX.X^.~.XX*X=X@X(.!.B.x.S.=.                            ",
"          i :.:.,.C.c.>.<.c.,.^ C C ^ ! b Q ' e.w.5.{ ..9.;.e.M.Q.Q.H.J.J.^..X#X).#X(.b.+.^ / b.N.~.J.                          ",
"          r a.a.<.<.v.c.<.c.Z.@.] v A ! ! ' ..y.p.q.3.q.r.r.e.B.B.S.M.C.W.!.U.U.P.l._ _ %.N.Y./.+X+X;X|.                        ",
"            F.<.Z.Z.x.>.Z.A.J.J.t.,.=.] ! I { ) { =.e.H.Q.H.C.M.H.W.A.N.-.$.+.$.-.N.Y._.#X#X2X+X!.!.^.OXG.                      ",
"            F.*.*.a.W.~.XX+X+X/.Z.@.@.*.X.[ L * O & @ q &..X+X!.A.c.@.Z ^ -.P.!.T./._._.#X#X#X+X^.+X.X|.|.|.;.                  ",
"            *.J.s.L.W.A.A.A.N.<.A.Z.I.J.C.y.Q $ O @ # # q B.E.E.&.&.N.c.N.Z.P.Y.V.Y.T./.T.T.U.!.~.^.^.!.W.J.J.M.                ",
"            h L.a.a.a.<.m.A.A.~.$X$X$XL.S.a.<.[ Q q & & & & 3 ( !.W.U.Z.N.N.b.z.-.$.j.N.V.V.I.!.^.E.N.H.M.B.C.D.D.Z             ",
"              J.a.o.o.*.J.{.{.OXOX XJ.C.w.a.C.c.&.&.3 e q ; & B W.W.P.x.c.c.-.$.$.l.!._._.(.T.T.A.!.W.M.H.S.M.M.i.3.e           ",
"              y.o.o.a.L.G.g.g.f.F.a.F.F.a.t.:.@.8 m N.N.M.r q Q A.H.B.>.;.-.N.U.Y.b.%.$.z.-.-.O.+.<.C.m.,.:.*...=.3.q.q.        ",
"              v 7.s.s.f.f.a.a.a.:.F u 9 D >.Z.%.S 9 _ #._ H Z ,.q.r.C.M.<.x.x.-.A Z F B Z _ &.-.z.C.J.J.W.K.L.D.D.D.'.G.D.c     ",
"                F.a.a.a.a.w.w.*.A 2 4 8 F D $.x.z.N 0 N 0 8 2 h r.q.3... .Q ! Z ] $.%.z.z.B.M.!.Z.;.,.a.K. X{.[.G.y.u.w.w.i. .  ",
"                a.Q.F.a.<.*.=.-.M 9 4 4 m M #.J n S 0 2 8 2 8 8 &.0.p.p.p.e.t.A.m.x.-.%.-.>.>.>.m.B.,.e.y.s.H.K. X[.{.{.}.}.&X|.",
"                o.F.C.a.a.t.t.@.F 9 = < 8 n 8 4 2 0 g 9 n 9 8 8 M w.p.p.s.D.y.C.c.>.>.@.] +.-.<.;.*.&.,.F.{. XOXoX%X%X&X&XG. .5 ",
"                  a.a.a.w.t.0.o.@.0 = = . < 1 8 9 8 n g n 0 8 0 g / p.d.'.'.L.S.a.:.@.+.+.^ ~ &.*.,.M.K.*X>X<X5X&X~.t.v :       ",
"                  7.a.:.:.t.t.5.C < . . = 2 g 8 4 4 4 8 4 8 9 8 9 9 =.d.w.o.w.a.a.t.,.:.;.&.>.e.M.M.H.^.^.J.:.f                 ",
"                  ' o.^ +.O.M M g 4 2 1 < 2 4 . . 1 1 1 8 8 8 2 1 < 1 T | w.d.G.G.a.a.t.C.A.H.W.M.e.*.c                         ",
"                  a o.h g 8 8 n n 8 < < < 8 2 X . < 1 2 2 9 8 1 = % < m p.`.`.].'.y.a.G.[.~.;.                                  ",
"                    E i 8 0 n 0 0 8 8 1 1 < . 1 6 6 < < 2 4 4 4 2 < 1 8 q.h.u.u.h.'.s.v                                         ",
"                    s.0.N G N n n 8 1 < = = < g N +.h 2 4 8 8 8 8 u v ) W 1.u.u.R                                               ",
"                    5.w.S G n n 4 1 2 < 4 2 2 G @.-.O.d 1 1 w Y } 3.| 1.2.p                                                     ",
"                    5.].O.n 0 8 2 1 f h A  .o.o. .[ [  .U { 5.6.u.7.l                                                           ",
"                    Y i.d 1 8 9 Z 0.7.5.X...~ ! I U ) ` W 1.2.s                                                                 ",
"                    l u. .[ 3.5.w.r.| ` U z z ' 3.1.2.2.L ,                                                                     ",
"                    Y ].f.f.d.s.0. .l w d Y 5.6.2.W t                                                                           ",
"                    l h.f.t. .d 4 d l ` 1.4.4.U >                                                                               ",
"                    s 8.| d 5 d U 2.2.4.E y                                                                                     ",
"                    > 2.` E 2.2.6.6.4.,                                                                                         ",
"                    > ` 2.1.1.6.E >                                                                                             ",
"                    ; 2.1.s %                                                                                                   ",
"                    o %                                                                                                         ",
"                                                                                                                                ",
"                                                                                                                                ",
"                                                                                                                                ",
"                                                                                                                                ",
"                                                                                                                                ",
"                                                                                                                                ",
"                                                                                                                                ",
"                                                                                                                                ",
"                                                                                                                                ",
"                                                                                                                                "
};
